<svg width="448" height="512" viewBox="0 0 448 512" fill="none" xmlns="http://www.w3.org/2000/svg">
<path d="M356 160H188C181.4 160 176 154.6 176 148V140C176 133.4 181.4 128 188 128H356C362.6 128 368 133.4 368 140V148C368 154.6 362.6 160 356 160ZM368 212V204C368 197.4 362.6 192 356 192H188C181.4 192 176 197.4 176 204V212C176 218.6 181.4 224 188 224H356C362.6 224 368 218.6 368 212ZM432.7 480H436C442.6 480 448 485.4 448 492V500C448 506.6 442.6 512 436 512H80C35.8 512 0 476.2 0 432V80C0 35.8 35.8 0 80 0H424C437.3 0 448 10.7 448 24V392C448 402 441.8 410.6 433.1 414.2C429.5 430.3 428.7 459.8 432.7 480V480ZM128 384H416V32H128V384ZM32 400C45.4 390 62 384 80 384H96V32H80C53.5 32 32 53.5 32 80V400ZM404.3 480C401.2 459.6 401.4 434.8 404.3 416H80C16 416 16 480 80 480H404.3Z" fill="white"/>
</svg>
