<svg width="230" height="230" viewBox="0 0 230 230" fill="none" xmlns="http://www.w3.org/2000/svg">
<path d="M101.692 23.6719C104.195 19.1656 106.699 14.1586 113.709 9.15154C116.88 6.48113 125.325 0.940024 133.737 0.138901C144.252 -0.862504 154.766 3.64382 172.792 10.6536C190.817 17.6635 194.322 35.6888 199.329 54.2147C204.336 72.7407 204.837 96.7744 204.837 106.288C204.837 115.801 203.835 140.336 206.339 155.857C208.842 171.379 207.34 189.404 206.339 202.923C205.337 216.442 193.821 225.455 184.808 225.455C175.796 225.455 110.204 224.954 92.1785 225.455C74.1532 225.956 63.6385 230.462 54.1253 229.961C44.612 229.461 31.093 227.458 24.0831 215.441C17.0733 203.424 29.5908 175.885 34.5979 163.368C39.6049 150.85 52.6231 123.812 54.1253 121.309C55.6274 118.805 59.1323 111.796 61.6358 107.289C64.1393 102.783 69.1463 84.2569 72.6512 78.2485C76.1562 72.24 99.1885 28.1782 101.692 23.6719Z" fill="url(#paint0_linear_1685_16)"/>
<defs>
<linearGradient id="paint0_linear_1685_16" x1="44.5" y1="230" x2="208" y2="230" gradientUnits="userSpaceOnUse">
<stop stop-color="#F58D1A"/>
<stop offset="0.694081" stop-color="#EF5233"/>
<stop offset="1" stop-color="#EE5E32"/>
</linearGradient>
</defs>
</svg>
