<svg width="727" height="101" viewBox="0 0 727 101" fill="none" xmlns="http://www.w3.org/2000/svg">
<g clip-path="url(#clip0_1893_6)">
<path d="M27.0388 53.9299L38.3698 34.2189L48.0981 51.1537L29.1378 84.1358H67.0445L76.7326 101H0L27.0388 53.9299ZM43.4824 25.3051L52.823 9.04545L105.686 101H86.9649L43.4824 25.3051ZM58.0219 0H76.7177L134.761 101H116.042L58.0219 0Z" fill="url(#paint0_linear_1893_6)"/>
<path d="M0 101.001H76.7326L67.0445 84.1367H29.1378L0 101.001Z" fill="#FFAF38"/>
<path d="M212.8 76L205 55.2H173L165.2 76H159.4L186 6.7H192.3L218.9 76H212.8ZM174.9 50.3H203.2L189 12.9L174.9 50.3ZM275.624 76L260.424 16.7L245.324 76H238.324L217.324 6.7H223.724L241.924 69.3L257.024 9H264.224L279.224 69.5L297.824 6.7H304.024L282.624 76H275.624ZM327.147 41C322.014 39 318.247 36.6333 315.847 33.9C313.447 31.1 312.247 27.6667 312.247 23.6C312.247 18.0667 314.214 13.6 318.147 10.2C322.147 6.73333 327.38 5 333.847 5C336.78 5 339.847 5.36666 343.047 6.09999C346.314 6.76666 349.38 7.73333 352.247 9V14.1C345.447 11.7 339.414 10.5 334.147 10.5C329.014 10.5 325.08 11.6333 322.347 13.9C319.614 16.1 318.247 19.2667 318.247 23.4C318.247 25.7333 318.647 27.6333 319.447 29.1C320.314 30.5 321.68 31.8 323.547 33C325.48 34.1333 328.214 35.3667 331.747 36.7L342.447 40.8C347.247 42.6667 350.747 44.9667 352.947 47.7C355.147 50.3667 356.247 53.7333 356.247 57.8C356.247 63.7333 354.047 68.5333 349.647 72.2C345.314 75.8667 339.58 77.7 332.447 77.7C325.047 77.7 318.447 76.3 312.647 73.5V68.4C319.647 70.9333 326.08 72.2 331.947 72.2C337.48 72.2 341.88 70.9 345.147 68.3C348.48 65.7 350.147 62.1667 350.147 57.7C350.147 54.9667 349.247 52.6333 347.447 50.7C345.647 48.7667 342.747 47.0333 338.747 45.5L327.147 41ZM442.585 76L434.785 55.2H402.785L394.985 76H389.185L415.785 6.7H422.085L448.685 76H442.585ZM404.685 50.3H432.985L418.785 12.9L404.685 50.3ZM524.09 76V41.8C524.09 37.4667 523.323 34.3333 521.79 32.4C520.257 30.4 517.823 29.4 514.49 29.4C508.157 29.4 502.123 31.5 496.39 35.7C496.59 37.3 496.69 38.8667 496.69 40.4V76H490.99V41.8C490.99 37.4667 490.223 34.3333 488.69 32.4C487.157 30.4 484.723 29.4 481.39 29.4C475.19 29.4 469.257 31.4333 463.59 35.5V76H457.89V25.7H462.89L463.49 31.2C466.49 28.9333 469.623 27.2 472.89 26C476.223 24.8 479.457 24.2 482.59 24.2C488.857 24.2 493.057 26.7667 495.19 31.9C498.323 29.4333 501.657 27.5333 505.19 26.2C508.723 24.8667 512.223 24.2 515.69 24.2C520.29 24.2 523.79 25.5 526.19 28.1C528.59 30.7 529.79 34.4667 529.79 39.4V76H524.09ZM545.195 96.6V25.7H550.195L550.695 31.3C553.761 28.8333 556.728 27.0333 559.595 25.9C562.528 24.7667 565.528 24.2 568.595 24.2C575.061 24.2 580.161 26.5333 583.895 31.2C587.628 35.8 589.495 42.1333 589.495 50.2C589.495 58.4 587.528 64.9333 583.595 69.8C579.661 74.6667 574.361 77.1 567.695 77.1C561.561 77.1 555.961 74.8333 550.895 70.3V96.6H545.195ZM567.495 29.4C561.961 29.4 556.428 31.5333 550.895 35.8V65.1C553.628 67.4333 556.295 69.1667 558.895 70.3C561.495 71.3667 564.228 71.9 567.095 71.9C572.561 71.9 576.661 70.1333 579.395 66.6C582.195 63 583.595 57.6667 583.595 50.6C583.595 36.4667 578.228 29.4 567.495 29.4ZM616.119 75.6C614.385 76.0667 612.685 76.3 611.019 76.3C608.352 76.3 606.252 75.5333 604.719 74C603.252 72.4 602.519 70.2 602.519 67.4V2H608.219V67.3C608.219 68.7667 608.485 69.8 609.019 70.4C609.619 71 610.652 71.3 612.119 71.3C613.185 71.3 614.519 71.2 616.119 71V75.6ZM627.919 76V25.7H633.619V76H627.919ZM630.819 14.9C629.485 14.9 628.419 14.5 627.619 13.7C626.885 12.9 626.519 11.8333 626.519 10.5C626.519 9.16666 626.885 8.1 627.619 7.3C628.419 6.49999 629.485 6.09999 630.819 6.09999C632.152 6.09999 633.185 6.49999 633.919 7.3C634.719 8.1 635.119 9.16666 635.119 10.5C635.119 11.8333 634.719 12.9 633.919 13.7C633.185 14.5 632.152 14.9 630.819 14.9ZM653.789 76V30.7H643.989V26.7L653.789 25.8V14.3C653.789 9.83333 654.956 6.43333 657.289 4.1C659.622 1.76666 662.956 0.599999 667.289 0.599999C668.889 0.599999 670.522 0.766666 672.189 1.1C673.922 1.36666 675.389 1.73333 676.589 2.2V6.9C673.256 6.16666 670.389 5.8 667.989 5.8C664.989 5.8 662.822 6.43333 661.489 7.7C660.156 8.9 659.489 10.9 659.489 13.7V25.7H676.089V30.7H659.489V76H653.789ZM700.498 76.5L679.898 25.7H686.098L703.198 70L720.498 25.7H726.498L701.998 86.6C700.398 90.6667 698.565 93.5333 696.498 95.2C694.432 96.9333 691.765 97.8 688.498 97.8C686.232 97.8 684.198 97.4 682.398 96.6V92.1C684.132 92.5 686.032 92.7 688.098 92.7C690.298 92.7 692.032 92.1333 693.298 91C694.632 89.8667 695.898 87.8333 697.098 84.9L700.498 76.5Z" fill="white"/>
</g>
<defs>
<linearGradient id="paint0_linear_1893_6" x1="86.2418" y1="42.889" x2="57.5544" y2="93.4074" gradientUnits="userSpaceOnUse">
<stop stop-color="#FFC300"/>
<stop offset="1" stop-color="#FF9000"/>
</linearGradient>
<clipPath id="clip0_1893_6">
<rect width="727" height="101" fill="white"/>
</clipPath>
</defs>
</svg>
