<svg width="181" height="36" viewBox="0 0 181 36" fill="none" xmlns="http://www.w3.org/2000/svg">
<path d="M50.1713 20.5005C50.1713 21.8113 50.4658 22.8656 51.0547 23.6635C51.6436 24.4614 52.5175 24.8603 53.6763 24.8603C54.0563 24.8603 54.4077 24.8508 54.7307 24.8318C55.0536 24.7939 55.3196 24.7559 55.5286 24.7179V16.9954C55.2626 16.8245 54.9112 16.682 54.4742 16.568C54.0563 16.454 53.6288 16.397 53.1919 16.397C51.1782 16.397 50.1713 17.7648 50.1713 20.5005ZM59.7745 27.6245C59.3945 27.7384 58.9576 27.8524 58.4637 27.9664C57.9697 28.0614 57.4473 28.1469 56.8964 28.2229C56.3645 28.2989 55.8135 28.3559 55.2436 28.3938C54.6927 28.4508 54.1608 28.4793 53.6478 28.4793C52.413 28.4793 51.3112 28.2989 50.3423 27.9379C49.3734 27.577 48.5566 27.064 47.8917 26.3991C47.2267 25.7152 46.7138 24.8983 46.3529 23.9485C46.0109 22.9796 45.8399 21.8968 45.8399 20.6999C45.8399 19.4841 45.9919 18.3917 46.2959 17.4229C46.5998 16.435 47.0368 15.5991 47.6067 14.9152C48.1766 14.2313 48.87 13.7089 49.6869 13.348C50.5228 12.987 51.4726 12.8065 52.5365 12.8065C53.1254 12.8065 53.6478 12.8635 54.1038 12.9775C54.5787 13.0915 55.0536 13.253 55.5286 13.4619V6.67988L59.7745 5.99598V27.6245ZM69.4778 25.1453C69.8958 25.1453 70.2947 25.1358 70.6747 25.1168C71.0546 25.0978 71.3586 25.0693 71.5865 25.0313V21.8113C71.4156 21.7733 71.1591 21.7353 70.8171 21.6973C70.4752 21.6593 70.1617 21.6403 69.8768 21.6403C69.4778 21.6403 69.0979 21.6688 68.7369 21.7258C68.395 21.7638 68.091 21.8493 67.8251 21.9822C67.5591 22.1152 67.3501 22.2957 67.1981 22.5237C67.0462 22.7516 66.9702 23.0366 66.9702 23.3785C66.9702 24.0435 67.1886 24.5089 67.6256 24.7749C68.0815 25.0218 68.6989 25.1453 69.4778 25.1453ZM69.1359 12.721C70.3897 12.721 71.4346 12.8635 72.2704 13.1485C73.1063 13.4334 73.7712 13.8419 74.2652 14.3738C74.7781 14.9057 75.139 15.5516 75.348 16.3115C75.557 17.0714 75.6615 17.9168 75.6615 18.8477V27.6814C75.0535 27.8144 74.2082 27.9664 73.1253 28.1374C72.0425 28.3274 70.7317 28.4223 69.1929 28.4223C68.224 28.4223 67.3406 28.3369 66.5427 28.1659C65.7638 27.9949 65.0894 27.7194 64.5195 27.3395C63.9496 26.9406 63.5127 26.4276 63.2087 25.8007C62.9047 25.1738 62.7528 24.4044 62.7528 23.4925C62.7528 22.6187 62.9237 21.8778 63.2657 21.2698C63.6266 20.6619 64.1016 20.1775 64.6905 19.8165C65.2794 19.4556 65.9538 19.1991 66.7137 19.0472C67.4736 18.8762 68.262 18.7907 69.0789 18.7907C69.6298 18.7907 70.1142 18.8192 70.5322 18.8762C70.9691 18.9142 71.3206 18.9712 71.5865 19.0472V18.6482C71.5865 17.9263 71.3681 17.3469 70.9311 16.91C70.4942 16.473 69.7343 16.2545 68.6514 16.2545C67.9295 16.2545 67.2171 16.3115 66.5142 16.4255C65.8113 16.5205 65.2034 16.663 64.6905 16.853L64.1491 13.4334C64.396 13.3574 64.7 13.2815 65.0609 13.2055C65.4409 13.1105 65.8493 13.0345 66.2863 12.9775C66.7232 12.9015 67.1791 12.8445 67.6541 12.8065C68.148 12.7495 68.6419 12.721 69.1359 12.721ZM83.8038 25.0598C84.5826 25.0598 85.1336 24.9838 85.4565 24.8318C85.7795 24.6799 85.941 24.3854 85.941 23.9485C85.941 23.6065 85.732 23.3121 85.314 23.0651C84.8961 22.7991 84.2597 22.5047 83.4048 22.1817C82.7399 21.9348 82.132 21.6783 81.5811 21.4123C81.0491 21.1464 80.5932 20.8329 80.2133 20.472C79.8333 20.092 79.5388 19.6456 79.3299 19.1326C79.1209 18.6197 79.0164 18.0023 79.0164 17.2804C79.0164 15.8746 79.5388 14.7633 80.5837 13.9464C81.6286 13.1295 83.0629 12.721 84.8866 12.721C85.7985 12.721 86.6724 12.8065 87.5082 12.9775C88.3441 13.1295 89.009 13.3005 89.503 13.4904L88.7621 16.796C88.2681 16.625 87.7267 16.473 87.1378 16.34C86.5679 16.2071 85.922 16.1406 85.2001 16.1406C83.8702 16.1406 83.2053 16.511 83.2053 17.2519C83.2053 17.4229 83.2338 17.5749 83.2908 17.7078C83.3478 17.8408 83.4618 17.9738 83.6328 18.1068C83.8038 18.2208 84.0317 18.3538 84.3167 18.5057C84.6206 18.6387 85.0006 18.7907 85.4565 18.9617C86.3874 19.3036 87.1568 19.6456 87.7647 19.9875C88.3726 20.3105 88.8475 20.6714 89.1895 21.0704C89.5504 21.4503 89.7974 21.8778 89.9304 22.3527C90.0824 22.8276 90.1584 23.3785 90.1584 24.0055C90.1584 25.4873 89.5979 26.6081 88.4771 27.368C87.3753 28.1279 85.808 28.5078 83.7753 28.5078C82.4454 28.5078 81.3341 28.3938 80.4412 28.1659C79.5673 27.9379 78.9594 27.7479 78.6175 27.596L79.3299 24.1479C80.0518 24.4329 80.7927 24.6609 81.5526 24.8318C82.3125 24.9838 83.0629 25.0598 83.8038 25.0598ZM93.3314 28.1089V6.67988L97.5773 5.99598V13.177C97.8623 13.082 98.2233 12.9965 98.6602 12.9205C99.1161 12.8255 99.5531 12.778 99.971 12.778C101.187 12.778 102.194 12.949 102.992 13.291C103.808 13.6139 104.454 14.0793 104.929 14.6873C105.423 15.2952 105.765 16.0171 105.955 16.853C106.164 17.6888 106.269 18.6197 106.269 19.6456V28.1089H102.023V20.1585C102.023 18.7907 101.842 17.8218 101.481 17.2519C101.139 16.682 100.493 16.397 99.5436 16.397C99.1636 16.397 98.8027 16.435 98.4607 16.511C98.1378 16.568 97.8433 16.6345 97.5773 16.7105V28.1089H93.3314ZM114.358 28.1089H110.112V13.12H114.358V28.1089ZM114.757 8.78859C114.757 9.56748 114.5 10.1849 113.987 10.6408C113.493 11.0778 112.904 11.2962 112.221 11.2962C111.537 11.2962 110.938 11.0778 110.425 10.6408C109.931 10.1849 109.684 9.56748 109.684 8.78859C109.684 8.0097 109.931 7.40178 110.425 6.96484C110.938 6.50891 111.537 6.28094 112.221 6.28094C112.904 6.28094 113.493 6.50891 113.987 6.96484C114.5 7.40178 114.757 8.0097 114.757 8.78859ZM127.952 20.5005C127.952 17.7648 126.945 16.397 124.932 16.397C124.495 16.397 124.058 16.454 123.621 16.568C123.203 16.682 122.861 16.8245 122.595 16.9954V24.7179C122.804 24.7559 123.07 24.7939 123.393 24.8318C123.716 24.8508 124.067 24.8603 124.447 24.8603C125.606 24.8603 126.48 24.4614 127.069 23.6635C127.658 22.8656 127.952 21.8113 127.952 20.5005ZM132.283 20.6144C132.283 21.8113 132.103 22.8941 131.742 23.863C131.4 24.8318 130.897 25.6582 130.232 26.3421C129.567 27.026 128.75 27.558 127.781 27.9379C126.812 28.2989 125.71 28.4793 124.476 28.4793C123.963 28.4793 123.421 28.4508 122.851 28.3938C122.3 28.3559 121.749 28.2989 121.199 28.2229C120.667 28.1469 120.154 28.0614 119.66 27.9664C119.166 27.8524 118.729 27.7384 118.349 27.6245V6.67988L122.595 5.99598V13.4619C123.07 13.253 123.564 13.0915 124.077 12.9775C124.59 12.8635 125.14 12.8065 125.729 12.8065C126.793 12.8065 127.734 12.9965 128.551 13.3764C129.367 13.7374 130.051 14.2598 130.602 14.9437C131.153 15.6276 131.571 16.454 131.856 17.4229C132.141 18.3727 132.283 19.4366 132.283 20.6144ZM141.274 25.1453C141.692 25.1453 142.091 25.1358 142.471 25.1168C142.851 25.0978 143.155 25.0693 143.383 25.0313V21.8113C143.212 21.7733 142.956 21.7353 142.614 21.6973C142.272 21.6593 141.958 21.6403 141.673 21.6403C141.274 21.6403 140.894 21.6688 140.534 21.7258C140.192 21.7638 139.888 21.8493 139.622 21.9822C139.356 22.1152 139.147 22.2957 138.995 22.5237C138.843 22.7516 138.767 23.0366 138.767 23.3785C138.767 24.0435 138.985 24.5089 139.422 24.7749C139.878 25.0218 140.496 25.1453 141.274 25.1453ZM140.932 12.721C142.186 12.721 143.231 12.8635 144.067 13.1485C144.903 13.4334 145.568 13.8419 146.062 14.3738C146.575 14.9057 146.936 15.5516 147.145 16.3115C147.354 17.0714 147.458 17.9168 147.458 18.8477V27.6814C146.85 27.8144 146.005 27.9664 144.922 28.1374C143.839 28.3274 142.528 28.4223 140.989 28.4223C140.021 28.4223 139.137 28.3369 138.339 28.1659C137.56 27.9949 136.886 27.7194 136.316 27.3395C135.746 26.9406 135.309 26.4276 135.005 25.8007C134.701 25.1738 134.549 24.4044 134.549 23.4925C134.549 22.6187 134.72 21.8778 135.062 21.2698C135.423 20.6619 135.898 20.1775 136.487 19.8165C137.076 19.4556 137.75 19.1991 138.51 19.0472C139.27 18.8762 140.059 18.7907 140.875 18.7907C141.426 18.7907 141.911 18.8192 142.329 18.8762C142.766 18.9142 143.117 18.9712 143.383 19.0472V18.6482C143.383 17.9263 143.165 17.3469 142.728 16.91C142.291 16.473 141.531 16.2545 140.448 16.2545C139.726 16.2545 139.014 16.3115 138.311 16.4255C137.608 16.5205 137 16.663 136.487 16.853L135.946 13.4334C136.193 13.3574 136.497 13.2815 136.858 13.2055C137.237 13.1105 137.646 13.0345 138.083 12.9775C138.52 12.9015 138.976 12.8445 139.451 12.8065C139.945 12.7495 140.439 12.721 140.932 12.721ZM155.6 25.0598C156.379 25.0598 156.93 24.9838 157.253 24.8318C157.576 24.6799 157.738 24.3854 157.738 23.9485C157.738 23.6065 157.529 23.3121 157.111 23.0651C156.693 22.7991 156.056 22.5047 155.201 22.1817C154.537 21.9348 153.929 21.6783 153.378 21.4123C152.846 21.1464 152.39 20.8329 152.01 20.472C151.63 20.092 151.335 19.6456 151.126 19.1326C150.918 18.6197 150.813 18.0023 150.813 17.2804C150.813 15.8746 151.335 14.7633 152.38 13.9464C153.425 13.1295 154.859 12.721 156.683 12.721C157.595 12.721 158.469 12.8065 159.305 12.9775C160.141 13.1295 160.806 13.3005 161.3 13.4904L160.559 16.796C160.065 16.625 159.523 16.473 158.934 16.34C158.364 16.2071 157.719 16.1406 156.997 16.1406C155.667 16.1406 155.002 16.511 155.002 17.2519C155.002 17.4229 155.03 17.5749 155.087 17.7078C155.144 17.8408 155.258 17.9738 155.429 18.1068C155.6 18.2208 155.828 18.3538 156.113 18.5057C156.417 18.6387 156.797 18.7907 157.253 18.9617C158.184 19.3036 158.953 19.6456 159.561 19.9875C160.169 20.3105 160.644 20.6714 160.986 21.0704C161.347 21.4503 161.594 21.8778 161.727 22.3527C161.879 22.8276 161.955 23.3785 161.955 24.0055C161.955 25.4873 161.395 26.6081 160.274 27.368C159.172 28.1279 157.605 28.5078 155.572 28.5078C154.242 28.5078 153.131 28.3938 152.238 28.1659C151.364 27.9379 150.756 27.7479 150.414 27.596L151.126 24.1479C151.848 24.4329 152.589 24.6609 153.349 24.8318C154.109 24.9838 154.859 25.0598 155.6 25.0598ZM164.416 20.7284C164.416 19.3986 164.615 18.2398 165.014 17.2519C165.432 16.245 165.973 15.4092 166.638 14.7443C167.303 14.0793 168.063 13.5759 168.918 13.234C169.792 12.892 170.685 12.721 171.597 12.721C173.724 12.721 175.406 13.3764 176.64 14.6873C177.875 15.9791 178.493 17.8883 178.493 20.415C178.493 20.6619 178.483 20.9374 178.464 21.2413C178.445 21.5263 178.426 21.7828 178.407 22.0107H168.776C168.871 22.8846 169.279 23.578 170.001 24.0909C170.723 24.6039 171.692 24.8603 172.907 24.8603C173.686 24.8603 174.446 24.7939 175.187 24.6609C175.947 24.5089 176.564 24.3284 177.039 24.1194L177.609 27.5675C177.381 27.6814 177.077 27.7954 176.697 27.9094C176.317 28.0234 175.89 28.1184 175.415 28.1944C174.959 28.2894 174.465 28.3654 173.933 28.4223C173.401 28.4793 172.869 28.5078 172.338 28.5078C170.989 28.5078 169.811 28.3084 168.804 27.9094C167.816 27.5105 166.99 26.969 166.325 26.2851C165.679 25.5822 165.195 24.7559 164.872 23.806C164.568 22.8561 164.416 21.8303 164.416 20.7284ZM174.389 19.1041C174.37 18.7432 174.304 18.3917 174.19 18.0498C174.095 17.7078 173.933 17.4039 173.705 17.1379C173.496 16.872 173.221 16.6535 172.879 16.4825C172.556 16.3115 172.148 16.226 171.654 16.226C171.179 16.226 170.77 16.3115 170.428 16.4825C170.086 16.6345 169.801 16.8435 169.573 17.1094C169.345 17.3754 169.165 17.6888 169.032 18.0498C168.918 18.3917 168.833 18.7432 168.776 19.1041H174.389Z" fill="white"/>
<mask id="mask0_1303_8181" style="mask-type:alpha" maskUnits="userSpaceOnUse" x="2" y="2" width="31" height="32">
<path d="M27.7775 8.04961C29.8001 10.1386 31.1368 12.3679 31.7875 14.7377C32.4751 17.106 32.4542 19.473 31.7249 21.8388C31.0133 24.2229 29.6349 26.471 27.5898 28.5833C25.5446 30.6955 23.3678 32.1191 21.0594 32.854C18.7879 33.5875 16.5055 33.5992 14.2124 32.889C11.9561 32.1775 9.81662 30.7772 7.79398 28.6883L3.42251 24.1735C1.53226 22.2213 1.53226 19.0561 3.42251 17.1039L16.5608 3.5348C18.4511 1.58258 21.5157 1.58259 23.406 3.53481L27.7775 8.04961Z" fill="white"/>
</mask>
<g mask="url(#mask0_1303_8181)">
<path fill-rule="evenodd" clip-rule="evenodd" d="M31.7876 14.7375C31.1369 12.3677 29.8002 10.1384 27.7775 8.04944L21.6948 1.76724C20.7496 0.79113 19.2173 0.791128 18.2722 1.76724L1.71128 18.8711C0.766161 19.8472 0.766161 21.4298 1.71128 22.4059L7.79405 28.6881C9.81669 30.7771 11.9562 32.1773 14.2124 32.8889C16.5056 33.599 18.7879 33.5873 21.0595 32.8538C23.3679 32.1189 25.5447 30.6953 27.5898 28.5831C29.635 26.4709 31.0134 24.2227 31.725 21.8386C32.4543 19.4729 32.4752 17.1058 31.7876 14.7375ZM17.4624 30.0271C14.8456 30.1277 12.3396 28.9411 9.94435 26.4673C9.33043 25.8333 9.33043 24.8053 9.94435 24.1712L16.6885 17.2059L23.4327 10.2406C24.0466 9.60659 25.042 9.60659 25.6559 10.2406C28.0334 12.6961 29.1543 15.2948 29.0187 18.0369C28.9009 20.7973 27.5996 23.4606 25.1148 26.0269C22.6491 28.5734 20.0983 29.9068 17.4624 30.0271ZM12.4199 14.6095C11.8191 13.9891 10.8451 13.9891 10.2443 14.6095L5.63775 19.3671C5.03698 19.9876 5.03698 20.9936 5.63775 21.614C6.23852 22.2345 7.21257 22.2345 7.81334 21.614L12.4199 16.8564C13.0207 16.236 13.0207 15.23 12.4199 14.6095Z" fill="#FF6069"/>
</g>
</svg>
