<svg width="147" height="40" viewBox="0 0 147 40" fill="none" xmlns="http://www.w3.org/2000/svg">
<path fill-rule="evenodd" clip-rule="evenodd" d="M53.3695 12.9784L53.4925 15.1764C54.8955 13.4764 56.7375 12.6264 59.0175 12.6264C62.9685 12.6264 64.9795 14.8944 65.0495 19.4304V31.9984H60.7895V19.6764C60.7895 18.4694 60.5295 17.5764 60.0095 16.9954C59.4895 16.4154 58.6385 16.1254 57.4575 16.1254C55.7385 16.1254 54.4575 16.9054 53.6175 18.4634V31.9984H49.3555V12.9784H53.3715H53.3695ZM77.7475 32.3504C75.0475 32.3504 72.8575 31.4984 71.1805 29.7934C69.5025 28.0884 68.6635 25.8174 68.6635 22.9814V22.4544C68.6635 20.5564 69.0285 18.8594 69.7595 17.3654C70.4895 15.8714 71.5165 14.7084 72.8375 13.8754C74.1585 13.0444 75.6315 12.6284 77.2575 12.6284C79.8405 12.6284 81.8375 13.4544 83.2455 15.1064C84.6555 16.7594 85.3595 19.0964 85.3595 22.1204V23.8434H72.9595C73.0895 25.4134 73.6115 26.6554 74.5295 27.5694C75.4475 28.4834 76.6025 28.9404 77.9935 28.9404C79.9455 28.9404 81.5355 28.1504 82.7635 26.5674L85.0605 28.7654C84.3005 29.9014 83.2865 30.7834 82.0185 31.4104C80.7495 32.0374 79.3265 32.3504 77.7485 32.3504H77.7475ZM77.2395 16.0564C76.0695 16.0564 75.1265 16.4664 74.4075 17.2864C73.6875 18.1064 73.2295 19.2494 73.0305 20.7144H81.1505V20.3974C81.0565 18.9674 80.6765 17.8874 80.0105 17.1544C79.3435 16.4224 78.4205 16.0564 77.2395 16.0564V16.0564ZM94.0045 8.35639V12.9794H97.3545V16.1434H94.0045V26.7604C94.0045 27.4864 94.1485 28.0104 94.4345 28.3334C94.7205 28.6554 95.2325 28.8164 95.9695 28.8164C96.4712 28.815 96.9712 28.7559 97.4595 28.6404V31.9454C96.4895 32.2154 95.5545 32.3494 94.6535 32.3494C91.3805 32.3494 89.7435 30.5394 89.7435 26.9184V16.1424H86.6195V12.9784H89.7415V8.35539H94.0025L94.0045 8.35639ZM105.141 31.9994H100.879V4.99939H105.141V31.9994ZM114.313 31.9994H110.051V12.9794H114.313V31.9994ZM109.788 8.03939C109.788 7.38439 109.995 6.83939 110.41 6.40539C110.826 5.97239 111.419 5.75539 112.19 5.75539C112.962 5.75539 113.558 5.97239 113.98 6.40539C114.4 6.83939 114.61 7.38439 114.61 8.04039C114.61 8.68439 114.4 9.22039 113.98 9.64839C113.558 10.0764 112.962 10.2904 112.19 10.2904C111.419 10.2904 110.826 10.0764 110.41 9.64839C109.995 9.22139 109.788 8.68439 109.788 8.04039V8.03939ZM120.451 31.9994V16.1424H117.557V12.9784H120.451V11.2384C120.451 9.12839 121.035 7.50039 122.204 6.35139C123.374 5.20339 125.01 4.62939 127.114 4.62939C127.863 4.62939 128.658 4.73439 129.5 4.94539L129.395 8.28539C128.858 8.18558 128.311 8.13869 127.764 8.14539C125.729 8.14539 124.712 9.19339 124.712 11.2914V12.9784H128.57V16.1424H124.712V31.9984H120.451V31.9994ZM138.321 25.8824L142.179 12.9794H146.721L139.181 34.8824C138.023 38.0814 136.059 39.6814 133.288 39.6814C132.668 39.6814 131.984 39.5754 131.236 39.3644V36.0594L132.043 36.1124C133.118 36.1124 133.928 35.9164 134.472 35.5234C135.015 35.1314 135.445 34.4724 135.761 33.5464L136.374 31.9114L129.71 12.9794H134.305L138.321 25.8824Z" fill="white"/>
<path d="M27.8869 14.1352L27.8729 14.1292C27.8649 14.1262 27.8569 14.1232 27.8499 14.1162C27.8384 14.1038 27.8299 14.0891 27.8251 14.0729C27.8202 14.0568 27.8191 14.0398 27.8219 14.0232L28.5949 9.29717L32.2199 12.9232L28.4499 14.5272C28.4394 14.5314 28.4282 14.5334 28.4169 14.5332H28.4019C28.3969 14.5302 28.3919 14.5262 28.3819 14.5162C28.2416 14.36 28.0738 14.2308 27.8869 14.1352V14.1352ZM33.1449 13.8472L37.0209 17.7232C37.8259 18.5292 38.2289 18.9312 38.3759 19.3972C38.3979 19.4662 38.4159 19.5352 38.4299 19.6062L29.1669 15.6832C29.1619 15.6811 29.1569 15.6791 29.1519 15.6772C29.1149 15.6622 29.0719 15.6452 29.0719 15.6072C29.0719 15.5692 29.1159 15.5512 29.1529 15.5362L29.1649 15.5312L33.1449 13.8472ZM38.2719 20.8502C38.0719 21.2262 37.6819 21.6162 37.0219 22.2772L32.6519 26.6462L26.9999 25.4692L26.9699 25.4632C26.9199 25.4552 26.8669 25.4462 26.8669 25.4012C26.8454 25.168 26.7762 24.9418 26.6635 24.7365C26.5508 24.5313 26.3971 24.3514 26.2119 24.2082C26.1889 24.1852 26.1949 24.1492 26.2019 24.1162C26.2019 24.1112 26.2019 24.1062 26.2039 24.1022L27.2669 17.5762L27.2709 17.5542C27.2769 17.5042 27.2859 17.4462 27.3309 17.4462C27.5587 17.4178 27.7786 17.3444 27.9777 17.2303C28.1769 17.1161 28.3513 16.9634 28.4909 16.7812C28.4999 16.7712 28.5059 16.7602 28.5179 16.7542C28.5499 16.7392 28.5879 16.7542 28.6209 16.7682L38.2709 20.8502H38.2719ZM31.6469 27.6512L24.4609 34.8372L25.6909 27.2772L25.6929 27.2672C25.6939 27.2572 25.6959 27.2472 25.6989 27.2382C25.7089 27.2142 25.7349 27.2042 25.7599 27.1942L25.7719 27.1892C26.0412 27.0743 26.2794 26.8971 26.4669 26.6722C26.4909 26.6442 26.5199 26.6172 26.5569 26.6122C26.5665 26.6106 26.5763 26.6106 26.5859 26.6122L31.6459 27.6522L31.6469 27.6512ZM22.9399 36.3582L22.1299 37.1682L13.1749 24.2262C13.1717 24.2214 13.1683 24.2168 13.1649 24.2122C13.1509 24.1932 13.1359 24.1742 13.1389 24.1522C13.1389 24.1362 13.1499 24.1222 13.1609 24.1102L13.1709 24.0972C13.1979 24.0572 13.2209 24.0172 13.2459 23.9742L13.2659 23.9392L13.2689 23.9362C13.2829 23.9122 13.2959 23.8892 13.3199 23.8762C13.3409 23.8662 13.3699 23.8702 13.3929 23.8752L23.3139 25.9212C23.3416 25.9255 23.3678 25.9368 23.3899 25.9542C23.4029 25.9672 23.4059 25.9812 23.4089 25.9972C23.4781 26.259 23.6069 26.5013 23.7852 26.7051C23.9636 26.9089 24.1866 27.0688 24.4369 27.1722C24.4649 27.1862 24.4529 27.2172 24.4399 27.2502C24.4334 27.2646 24.4284 27.2797 24.4249 27.2952C24.2999 28.0552 23.2279 34.5932 22.9399 36.3582ZM21.2479 38.0492C20.6509 38.6402 20.2989 38.9532 19.9009 39.0792C19.5085 39.2033 19.0873 39.2033 18.6949 39.0792C18.2289 38.9312 17.8259 38.5292 17.0209 37.7232L8.02791 28.7302L10.3769 25.0872C10.3879 25.0692 10.3989 25.0532 10.4169 25.0402C10.4419 25.0222 10.4779 25.0302 10.5079 25.0402C11.0471 25.2028 11.6259 25.1735 12.1459 24.9572C12.1729 24.9472 12.1999 24.9402 12.2209 24.9592C12.2314 24.9688 12.2408 24.9795 12.2489 24.9912L21.2479 38.0502V38.0492ZM7.16091 27.8632L5.09791 25.8002L9.17191 24.0622C9.18232 24.0576 9.19355 24.0552 9.20491 24.0552C9.23891 24.0552 9.25891 24.0892 9.27691 24.1202C9.31785 24.1832 9.36121 24.2445 9.40691 24.3042L9.41991 24.3202C9.43191 24.3372 9.42391 24.3542 9.41191 24.3702L7.16191 27.8632H7.16091ZM4.18491 24.8872L1.57491 22.2772C1.13091 21.8332 0.808906 21.5112 0.584906 21.2342L8.52091 22.8802C8.53087 22.882 8.54088 22.8837 8.55091 22.8852C8.59991 22.8932 8.65391 22.9022 8.65391 22.9482C8.65391 22.9982 8.59491 23.0212 8.54491 23.0402L8.52191 23.0502L4.18491 24.8872ZM0.128906 19.8922C0.13795 19.724 0.16819 19.5577 0.218906 19.3972C0.366906 18.9312 0.768906 18.5292 1.57491 17.7232L4.91491 14.3832C6.45274 16.615 7.99474 18.8441 9.54091 21.0702C9.56791 21.1062 9.59791 21.1462 9.56691 21.1762C9.42091 21.3372 9.27491 21.5132 9.17191 21.7042C9.16073 21.7287 9.14353 21.75 9.12191 21.7662C9.10891 21.7742 9.09491 21.7712 9.07991 21.7682H9.07791L0.128906 19.8912V19.8922ZM5.80891 13.4892L10.2979 8.99817C10.7209 9.18317 12.2579 9.83217 13.6309 10.4122C14.6709 10.8522 15.6189 11.2522 15.9169 11.3822C15.9469 11.3942 15.9739 11.4062 15.9869 11.4362C15.9949 11.4542 15.9909 11.4772 15.9869 11.4962C15.9158 11.8203 15.9264 12.1571 16.0177 12.4762C16.109 12.7953 16.2781 13.0866 16.5099 13.3242C16.5399 13.3542 16.5099 13.3972 16.4839 13.4342L16.4699 13.4552L11.9099 20.5182C11.8979 20.5382 11.8869 20.5552 11.8669 20.5682C11.8429 20.5832 11.8089 20.5762 11.7809 20.5692C11.6036 20.5227 11.4212 20.4979 11.2379 20.4952C11.0739 20.4952 10.8959 20.5252 10.7159 20.5582H10.7149C10.6949 20.5612 10.6769 20.5652 10.6609 20.5532C10.6432 20.5387 10.628 20.5215 10.6159 20.5022L5.80791 13.4892H5.80891ZM11.2069 8.09117L17.0209 2.27717C17.8259 1.47217 18.2289 1.06917 18.6949 0.922169C19.0873 0.798079 19.5085 0.798079 19.9009 0.922169C20.3669 1.06917 20.7699 1.47217 21.5749 2.27717L22.8349 3.53717L18.6999 9.94117C18.6897 9.95981 18.6757 9.97615 18.6589 9.98917C18.6339 10.0062 18.5989 9.99917 18.5689 9.98917C18.2429 9.89023 17.8977 9.87222 17.5631 9.93669C17.2286 10.0012 16.9148 10.1462 16.6489 10.3592C16.6219 10.3872 16.5819 10.3712 16.5479 10.3562C16.0079 10.1212 11.8079 8.34617 11.2069 8.09117V8.09117ZM23.7129 4.41517L27.5309 8.23317L26.6109 13.9312V13.9462C26.6101 13.9592 26.6074 13.972 26.6029 13.9842C26.5929 14.0042 26.5729 14.0082 26.5529 14.0142C26.3562 14.0738 26.1709 14.166 26.0049 14.2872C25.9978 14.2923 25.9911 14.2979 25.9849 14.3042C25.9739 14.3162 25.9629 14.3272 25.9449 14.3292C25.9303 14.3296 25.9157 14.3272 25.9019 14.3222L20.0839 11.8502L20.0729 11.8452C20.0359 11.8302 19.9919 11.8122 19.9919 11.7742C19.9577 11.45 19.8518 11.1374 19.6819 10.8592C19.6539 10.8132 19.6229 10.7652 19.6469 10.7182L23.7129 4.41517ZM19.7809 13.0212L25.2349 15.3312C25.2649 15.3452 25.2979 15.3582 25.3109 15.3892C25.3161 15.4078 25.3161 15.4275 25.3109 15.4462C25.2949 15.5262 25.2809 15.6172 25.2809 15.7092V15.8622C25.2809 15.9002 25.2419 15.9162 25.2059 15.9312L25.1949 15.9352C24.3309 16.3042 13.0649 21.1082 13.0479 21.1082C13.0309 21.1082 13.0129 21.1082 12.9959 21.0912C12.9659 21.0612 12.9959 21.0192 13.0229 20.9812C13.0277 20.9746 13.0323 20.9679 13.0369 20.9612L17.5189 14.0212L17.5269 14.0092C17.5529 13.9672 17.5829 13.9202 17.6309 13.9202L17.6759 13.9272C17.7779 13.9412 17.8679 13.9542 17.9589 13.9542C18.6389 13.9542 19.2689 13.6232 19.6489 13.0572C19.658 13.0421 19.6694 13.0285 19.6829 13.0172C19.7099 12.9972 19.7499 13.0072 19.7809 13.0212V13.0212ZM13.5349 22.2062L25.8149 16.9692C25.8149 16.9692 25.8329 16.9692 25.8499 16.9862C25.9169 17.0532 25.9739 17.0982 26.0289 17.1402L26.0559 17.1572C26.0809 17.1712 26.1059 17.1872 26.1079 17.2132C26.1079 17.2232 26.1079 17.2292 26.1059 17.2382L25.0539 23.7002L25.0499 23.7262C25.0429 23.7762 25.0359 23.8332 24.9889 23.8332C24.7084 23.8521 24.4368 23.9391 24.1976 24.0867C23.9583 24.2343 23.7587 24.438 23.6159 24.6802L23.6109 24.6882C23.5969 24.7112 23.5839 24.7332 23.5609 24.7452C23.5399 24.7552 23.5129 24.7512 23.4909 24.7462L13.6979 22.7262C13.6879 22.7242 13.5459 22.2072 13.5349 22.2062V22.2062Z" fill="url(#paint0_radial_512_15)"/>
<defs>
<radialGradient id="paint0_radial_512_15" cx="0" cy="0" r="1" gradientUnits="userSpaceOnUse" gradientTransform="translate(-1.15702 19.4597) rotate(90) scale(38.3009 44.2199)">
<stop stop-color="#20C6B7"/>
<stop offset="1" stop-color="#4D9ABF"/>
</radialGradient>
</defs>
</svg>
