<?xml version="1.0" encoding="UTF-8"?><svg id="Layer_1" xmlns="http://www.w3.org/2000/svg" viewBox="40 16 410 100"><defs>
<style>.cls-1{fill:#8c9091;}.cls-2{fill:#ffffff;}.cls-3{fill:#c7893e;}</style></defs>
<g><g><path class="cls-2" d="M206.74,62.86l11.93-16.17h-11.93v-4.73h18.97v4.32l-11.93,16.2h12.19v4.73h-19.23v-4.35Z"/><path class="cls-2" d="M233.1,41.96h17.87v4.62h-12.49v5.49h12.23v4.62h-12.23v5.87h12.49v4.66h-17.87v-25.25Z"/><path class="cls-2" d="M267.52,58.17h-3.94v9.05h-5.38v-25.25h11.81c5.26,0,8.48,3.45,8.48,8.14s-2.8,6.85-5.53,7.5l5.68,9.62h-6.17l-4.96-9.05Zm1.7-11.59h-5.64v6.97h5.64c2.16,0,3.79-1.36,3.79-3.48s-1.63-3.48-3.79-3.48Z"/><path class="cls-2" d="M297.54,41.55c7.65,0,13.21,5.45,13.21,13.06s-5.57,13.06-13.21,13.06-13.18-5.45-13.18-13.06,5.57-13.06,13.18-13.06Zm0,4.77c-4.66,0-7.65,3.56-7.65,8.29s2.99,8.29,7.65,8.29,7.68-3.6,7.68-8.29-3.03-8.29-7.68-8.29Z"/><path class="cls-2" d="M318.79,59.57c1.78,1.86,4.54,3.41,8.03,3.41,2.95,0,4.39-1.4,4.39-2.84,0-1.89-2.2-2.54-5.11-3.22-4.13-.95-9.43-2.08-9.43-7.72,0-4.2,3.63-7.61,9.58-7.61,4.01,0,7.34,1.21,9.84,3.52l-2.99,3.94c-2.04-1.89-4.77-2.76-7.23-2.76s-3.71,1.06-3.71,2.57c0,1.7,2.12,2.23,5.04,2.92,4.16,.95,9.46,2.2,9.46,7.8,0,4.62-3.29,8.1-10.11,8.1-4.85,0-8.33-1.63-10.71-4.01l2.95-4.09Z"/><path class="cls-2" d="M343.32,41.96h5.38v20.52h10.68v4.73h-16.05v-25.25Z"/><path class="cls-2" d="M377.1,41.55c7.65,0,13.21,5.45,13.21,13.06s-5.57,13.06-13.21,13.06-13.18-5.45-13.18-13.06,5.57-13.06,13.18-13.06Zm0,4.77c-4.66,0-7.65,3.56-7.65,8.29s2.99,8.29,7.65,8.29,7.68-3.6,7.68-8.29-3.03-8.29-7.68-8.29Z"/><path class="cls-2" d="M397.13,41.96h11.81c5.49,0,8.48,3.71,8.48,8.14s-3.03,8.06-8.48,8.06h-6.44v9.05h-5.38v-25.25Zm11.09,4.62h-5.72v6.97h5.72c2.12,0,3.71-1.36,3.71-3.48s-1.59-3.48-3.71-3.48Z"/><path class="cls-2" d="M423.79,41.96h17.87v4.62h-12.49v5.49h12.23v4.62h-12.23v5.87h12.49v4.66h-17.87v-25.25Z"/></g><g><path class="cls-2" d="M279.42,81.13v-2.1h-8.12v11.47h8.12v-2.12h-5.68v-2.67h5.56v-2.1h-5.56v-2.49h5.68Z"/><path class="cls-2" d="M297.17,79.03l-3.17,8.82-3.18-8.82h-2.78l4.44,11.47h3.06l4.43-11.47h-2.79Z"/><path class="cls-2" d="M317.08,81.13v-2.1h-8.12v11.47h8.12v-2.12h-5.67v-2.67h5.56v-2.1h-5.56v-2.49h5.67Z"/><path class="cls-2" d="M334.75,79.03v7.43l-5.32-7.43h-2.52v11.47h2.45v-7.71l5.47,7.71h2.37v-11.47h-2.45Z"/><path class="cls-2" d="M346.68,79.03v2.15h3.35v9.32h2.46v-9.32h3.34v-2.15h-9.16Z"/><path class="cls-2" d="M369.58,83.48c-1.33-.31-2.29-.55-2.29-1.33,0-.68,.58-1.17,1.68-1.17s2.36,.4,3.29,1.26l1.35-1.8c-1.13-1.05-2.64-1.6-4.47-1.6-2.69,0-4.35,1.55-4.35,3.46,0,2.57,2.41,3.09,4.29,3.51,1.33,.31,2.32,.6,2.32,1.47,0,.65-.66,1.29-2,1.29-1.58,0-2.84-.71-3.65-1.55l-1.34,1.85c1.08,1.08,2.67,1.83,4.87,1.83,3.09,0,4.6-1.58,4.6-3.68,0-2.55-2.41-3.12-4.3-3.55Z"/></g><g><g><path class="cls-1" d="M151.2,47.63c0-1.8-1.46-3.26-3.26-3.26s-3.26,1.46-3.26,3.26,1.43,3.22,3.2,3.25c.8,1.77,1.47,3.6,1.97,5.47h-28.54s-6.62-3.89-6.62-3.89l-6.34,3.9h-16.01l45.06-22.86-2.48-1.45c-5.98-3.49-12.77-5.34-19.63-5.34-8.83,0-17.29,2.97-24.15,8.42-.37-.14-.76-.23-1.18-.23-1.8,0-3.26,1.46-3.26,3.26s1.46,3.26,3.26,3.26,3.26-1.46,3.26-3.26c0-.22-.02-.43-.06-.64,6.29-4.97,14.05-7.68,22.14-7.68,5.33,0,10.62,1.21,15.45,3.53l-51.47,26.11h29.96l5.49-3.38,5.74,3.38h31.37s1.73-.05,1.73-.05l-.18-1.73-.02-.16c-.59-2.81-1.5-5.53-2.69-8.14,.34-.51,.54-1.13,.54-1.79Z"/><path class="cls-1" d="M156.96,46.1s0,0,0,0c1.88,3.99,3.16,8.22,3.82,12.62l.11,.79h3.16c-.06-.42-.11-.84-.18-1.26-.71-4.73-2.1-9.3-4.14-13.6,0,0,0,0,0,0,.35-.52,.55-1.14,.55-1.81,0-1.8-1.46-3.26-3.26-3.26s-3.26,1.46-3.26,3.26,1.43,3.22,3.2,3.25Z"/><path class="cls-1" d="M111.31,39.26c1.8,0,3.26-1.46,3.26-3.26s-1.46-3.26-3.26-3.26-3.18,1.4-3.25,3.14l-37.38,18.41c5.11-20.28,23.38-34.69,44.61-34.69,12.44,0,24.36,5.06,33,13.95l-20.38,10.23c-.53-.36-1.16-.58-1.85-.58-1.8,0-3.26,1.46-3.26,3.26s1.46,3.26,3.26,3.26,3.18-1.4,3.25-3.14l22.24-11.16,1.54-.8-.94-1.46-.15-.19c-9.32-10.47-22.7-16.48-36.71-16.48-23.8,0-44.14,16.98-48.35,40.37l-.55,3.05,43.07-21.21c.53,.36,1.16,.58,1.85,.58Z"/><path class="cls-1" d="M160.79,72.59c-.66,4.39-1.94,8.62-3.83,12.62,0,0,0,0,0,0-1.77,.04-3.19,1.47-3.19,3.25s1.46,3.26,3.26,3.26,3.26-1.46,3.26-3.26c0-.67-.2-1.29-.55-1.81,2.04-4.31,3.43-8.87,4.14-13.6,.07-.42,.12-.84,.18-1.26h-3.16c-.04,.26-.07,.53-.11,.79Z"/><path class="cls-1" d="M114.73,75.21l-5.49-3.38h-29.96l51.47,26.11c-4.83,2.32-10.12,3.53-15.45,3.53-8.09,0-15.84-2.71-22.14-7.68,.04-.21,.06-.42,.06-.64,0-1.8-1.46-3.26-3.26-3.26s-3.26,1.46-3.26,3.26,1.46,3.26,3.26,3.26c.42,0,.81-.09,1.18-.23,6.86,5.44,15.32,8.42,24.15,8.42,6.86,0,13.65-1.85,19.63-5.34l2.48-1.45-45.06-22.86h16.01l6.34,3.9,6.62-3.9h28.54c-.5,1.88-1.17,3.71-1.97,5.48-1.77,.03-3.2,1.47-3.2,3.25s1.46,3.26,3.26,3.26,3.26-1.46,3.26-3.26c0-.66-.2-1.27-.54-1.79,1.19-2.6,2.1-5.33,2.69-8.14l.21-1.93h-33.1s-5.74,3.37-5.74,3.37Z"/><path class="cls-1" d="M126.06,81.6c-1.8,0-3.26,1.46-3.26,3.26s1.46,3.26,3.26,3.26c.69,0,1.33-.22,1.85-.58l20.38,10.23c-8.64,8.89-20.56,13.95-33,13.95-21.22,0-39.5-14.41-44.61-34.69l37.38,18.41c.06,1.74,1.49,3.14,3.25,3.14s3.26-1.46,3.26-3.26-1.46-3.26-3.26-3.26c-.69,0-1.33,.22-1.85,.58l-43.07-21.21,.55,3.05c4.21,23.39,24.55,40.37,48.35,40.37,14.01,0,27.39-6.01,36.71-16.48l1.1-1.68-23.79-11.94c-.06-1.74-1.49-3.14-3.25-3.14Z"/></g><path class="cls-3" d="M188.56,65.5l-15.55-10.34v8.77h-52.54l-2.57-1.92-3.18-2.37-3.18,2.37-2.57,1.92H56.47v-8.77l-15.55,10.34,15.55,10.34v-8.78h52.49l2.46,1.83,3.3,2.46,3.3-2.46,2.46-1.83h52.52v8.78l15.55-10.34Zm-135.22,4.51l-6.78-4.51,6.78-4.51v9.02Zm61.37-2.55l-.53-.4-2.09-1.56,2.1-1.57,.52-.39,.52,.39,2.1,1.57-2.1,1.56-.53,.4Zm61.42-6.47l6.78,4.51-6.78,4.51v-9.02Z"/></g></g></svg>