<svg width="381" height="100" viewBox="0 0 381 100" fill="none" xmlns="http://www.w3.org/2000/svg">
<g clip-path="url(#clip0_860_11)">
<path d="M25.7844 85.175C21.2667 81.045 19.9479 72.368 21.8301 66.082C25.0937 70.045 29.6156 71.301 34.2995 72.009C41.5303 73.103 48.6316 72.694 55.3488 69.389C56.1172 69.011 56.8273 68.507 57.667 67.998C58.2972 69.826 58.4613 71.672 58.2411 73.551C57.7058 78.127 55.4286 81.662 51.8067 84.341C50.3584 85.413 48.8259 86.371 47.3301 87.382C42.7347 90.487 41.4915 94.129 43.2182 99.427C43.2592 99.556 43.2959 99.685 43.3888 100C41.0425 98.95 39.3287 97.421 38.0228 95.411C36.6436 93.289 35.9874 90.942 35.9529 88.403C35.9356 87.167 35.9356 85.92 35.7694 84.702C35.3636 81.732 33.9692 80.402 31.3424 80.325C28.6465 80.247 26.5139 81.913 25.9484 84.538C25.9052 84.739 25.8426 84.938 25.7801 85.172L25.7844 85.175Z" fill="white"/>
<path d="M25.7844 85.175C21.2667 81.045 19.9479 72.368 21.8301 66.082C25.0937 70.045 29.6156 71.301 34.2995 72.009C41.5303 73.103 48.6316 72.694 55.3488 69.389C56.1172 69.011 56.8273 68.507 57.667 67.998C58.2972 69.826 58.4613 71.672 58.2411 73.551C57.7058 78.127 55.4286 81.662 51.8067 84.341C50.3584 85.413 48.8259 86.371 47.3301 87.382C42.7347 90.487 41.4915 94.129 43.2182 99.427C43.2592 99.556 43.2959 99.685 43.3888 100C41.0425 98.95 39.3287 97.421 38.0228 95.411C36.6436 93.289 35.9874 90.942 35.9529 88.403C35.9356 87.167 35.9356 85.92 35.7694 84.702C35.3636 81.732 33.9692 80.402 31.3424 80.325C28.6465 80.247 26.5139 81.913 25.9484 84.538C25.9052 84.739 25.8426 84.938 25.7801 85.172L25.7844 85.175Z" fill="url(#paint0_linear_860_11)"/>
<path d="M0 65.034C0 65.034 13.3775 58.5177 26.7924 58.5177L36.9068 27.2155C37.2855 25.7017 38.3911 24.6729 39.6393 24.6729C40.8875 24.6729 41.9932 25.7017 42.3719 27.2155L52.4862 58.5177C68.374 58.5177 79.279 65.034 79.279 65.034C79.279 65.034 56.5558 3.133 56.5114 3.0088C55.8592 1.1787 54.7583 0 53.274 0H26.007C24.5227 0 23.4662 1.1787 22.7696 3.0088C22.7205 3.1307 0 65.034 0 65.034Z" fill="white"/>
<path d="M141.043 45.1228C141.043 50.608 134.22 53.8839 124.773 53.8839C118.624 53.8839 116.45 52.3602 116.45 49.1605C116.45 45.8084 119.149 44.2086 125.297 44.2086C130.846 44.2086 135.569 44.2847 141.043 44.9704V45.1228ZM141.118 38.3424C137.744 37.5806 132.645 37.1235 126.572 37.1235C108.877 37.1235 100.555 41.3136 100.555 51.0651C100.555 61.1976 106.253 65.0831 119.449 65.0831C130.621 65.0831 138.193 62.2642 140.968 55.3314H141.417C141.342 57.0075 141.268 58.6835 141.268 59.9786C141.268 63.5593 141.867 63.864 144.791 63.864H158.587C157.837 61.7309 157.388 55.7123 157.388 50.5318C157.388 44.9704 157.612 40.7803 157.612 35.1427C157.612 23.6389 150.715 16.3252 129.121 16.3252C119.824 16.3252 109.477 17.9251 101.605 20.2868C102.354 23.4103 103.404 29.7336 103.929 33.8475C110.752 30.6478 120.424 29.2765 127.922 29.2765C138.268 29.2765 141.118 31.6382 141.118 36.4378V38.3424Z" fill="white"/>
<path d="M178.972 48.3225C177.098 48.551 174.548 48.551 171.924 48.551C169.15 48.551 166.601 48.4749 164.876 48.2463C164.876 48.8558 164.801 49.5414 164.801 50.1509C164.801 59.6739 171.025 65.2351 192.918 65.2351C213.536 65.2351 220.209 59.7501 220.209 50.0747C220.209 40.9326 215.786 36.4378 196.217 35.4474C180.996 34.7617 179.647 33.0857 179.647 31.1811C179.647 28.9718 181.596 27.829 191.793 27.829C202.365 27.829 205.214 29.2765 205.214 32.3239V33.0095C206.714 32.9333 209.413 32.8572 212.187 32.8572C214.811 32.8572 217.66 32.9333 219.31 33.0857C219.31 32.4 219.385 31.7906 219.385 31.2573C219.385 20.0582 210.087 16.4014 192.093 16.4014C171.849 16.4014 165.026 21.3534 165.026 31.0287C165.026 39.7137 170.5 45.1228 189.919 45.9608C204.239 46.4179 205.814 48.0178 205.814 50.2271C205.814 52.5888 203.49 53.6554 193.443 53.6554C181.896 53.6554 178.972 52.0555 178.972 48.7796V48.3225Z" fill="white"/>
<path d="M244.955 8.17334C239.482 13.2777 229.661 18.382 224.188 19.7533C224.263 22.5721 224.262 27.7526 224.262 30.5714L229.285 30.6476C229.21 36.0567 229.135 42.6085 229.135 46.951C229.135 57.0834 234.459 64.7019 251.029 64.7019C258.002 64.7019 262.65 63.94 268.423 62.7211C267.823 58.988 267.148 53.2742 266.923 48.9318C263.475 50.0745 259.126 50.684 254.327 50.684C247.654 50.684 244.955 48.8556 244.955 43.5989C244.955 39.0279 244.955 34.7615 245.03 30.8C253.578 30.8762 262.125 31.0285 267.148 31.1809C267.073 27.2193 267.223 21.5055 267.448 17.6963C260.176 17.8487 252.003 17.9249 245.255 17.9249C245.33 14.5728 245.405 11.3731 245.48 8.17334H244.955Z" fill="white"/>
<path d="M289.737 28.2862C289.812 24.3246 289.887 20.9726 289.962 17.6966H274.891C275.116 24.2485 275.116 30.9527 275.116 40.7804C275.116 50.6081 275.041 57.3885 274.891 63.8641H292.136C291.836 59.2931 291.761 51.5985 291.761 45.0467C291.761 34.6857 295.96 31.7145 305.482 31.7145C309.906 31.7145 313.055 32.2478 315.829 33.2382C315.904 29.3528 316.654 21.8106 317.103 18.4585C314.254 17.6205 311.105 17.0872 307.281 17.0872C299.109 17.011 293.111 20.3631 290.337 28.3624L289.737 28.2862Z" fill="white"/>
<path d="M364.806 40.4755C364.806 48.7796 358.808 52.665 349.361 52.665C339.989 52.665 333.991 49.0081 333.991 40.4755C333.991 31.9429 340.064 28.7432 349.361 28.7432C358.733 28.7432 364.806 32.1715 364.806 40.4755ZM380.476 40.0946C380.476 23.5627 367.58 16.1729 349.361 16.1729C331.067 16.1729 318.621 23.5627 318.621 40.0946C318.621 56.5504 330.242 65.3881 349.286 65.3881C368.48 65.3881 380.476 56.5504 380.476 40.0946Z" fill="white"/>
</g>
<defs>
<linearGradient id="paint0_linear_860_11" x1="21.0001" y1="100" x2="64.6218" y2="79.39" gradientUnits="userSpaceOnUse">
<stop stop-color="#D83333"/>
<stop offset="1" stop-color="#F041FF"/>
</linearGradient>
<clipPath id="clip0_860_11">
<rect width="381" height="100" fill="white"/>
</clipPath>
</defs>
</svg>
