<svg width="42" height="42" viewBox="0 0 42 42" fill="none" xmlns="http://www.w3.org/2000/svg">
<path fill-rule="evenodd" clip-rule="evenodd" d="M41 21C41 32.0457 32.0457 41 21 41C9.9543 41 1 32.0457 1 21C1 9.9543 9.9543 1 21 1C32.0457 1 41 9.9543 41 21Z" stroke="url(#paint0_linear_1328_185903)" stroke-width="1.5"/>
<path d="M21.0012 38.7954C30.8286 38.7954 38.7954 30.8286 38.7954 21.0012C38.7954 11.1737 30.8286 3.20703 21.0012 3.20703C11.1737 3.20703 3.20703 11.1737 3.20703 21.0012C3.20703 30.8286 11.1737 38.7954 21.0012 38.7954Z" fill="url(#paint1_linear_1328_185903)" fill-opacity="0.5"/>
<path d="M21.0012 38.7954C30.8286 38.7954 38.7954 30.8286 38.7954 21.0012C38.7954 11.1737 30.8286 3.20703 21.0012 3.20703C11.1737 3.20703 3.20703 11.1737 3.20703 21.0012C3.20703 30.8286 11.1737 38.7954 21.0012 38.7954Z" fill="url(#paint2_linear_1328_185903)"/>
<path fill-rule="evenodd" clip-rule="evenodd" d="M19.2229 22.6618C19.2229 24.6978 18.0096 26.0086 15.8342 26.0086C15.0533 26.0086 14.3282 25.8552 13.7704 25.5345C13.1289 25.1719 13.1289 24.7118 13.1289 24.2376V17.1954C13.1289 16.6934 13.4357 16.4424 14.0632 16.4424C14.6907 16.4424 14.9975 16.6934 14.9975 17.1954V19.8728C15.3462 19.6358 15.8063 19.5242 16.3363 19.5242C18.0375 19.5242 19.2229 20.6538 19.2229 22.6618ZM14.9975 24.2934C15.2346 24.4329 15.5274 24.5026 15.8482 24.5026C16.7546 24.5026 17.3124 23.889 17.3124 22.7873C17.3124 21.6717 16.7407 21.0303 15.8761 21.0303C15.5414 21.0303 15.2346 21.1279 14.9975 21.3092V24.2934ZM22.7161 17.6835C22.7161 18.325 22.2559 18.7712 21.6144 18.7712C20.973 18.7712 20.5128 18.325 20.5128 17.6835C20.5128 17.042 20.973 16.6097 21.6144 16.6097C22.2559 16.6097 22.7161 17.042 22.7161 17.6835ZM22.5487 20.2773V25.2277C22.5487 25.7297 22.2419 25.9807 21.6144 25.9807C20.9869 25.9807 20.6801 25.7297 20.6801 25.2277V20.2773C20.6801 19.7752 20.9869 19.5242 21.6144 19.5242C22.2419 19.5242 22.5487 19.7752 22.5487 20.2773ZM28.2034 24.3073C28.7194 24.3073 28.8728 24.8512 28.8728 25.158C28.8728 25.3532 28.8031 25.5485 28.5381 25.7018C28.2313 25.8831 27.7014 26.0086 27.1576 26.0086C26.1535 26.0086 25.5539 25.6042 25.2471 25.0464C24.9682 24.5444 24.9403 23.9448 24.9403 23.3033V21.2116H24.4522C23.9502 21.2116 23.6992 20.9606 23.6992 20.4306C23.6992 19.9007 23.9502 19.6497 24.4522 19.6497H24.9403V18.4226C24.9403 17.9205 25.2471 17.6695 25.8746 17.6695C26.5021 17.6695 26.8089 17.9205 26.8089 18.4226V19.6497H27.9803C28.4823 19.6497 28.7333 19.9007 28.7333 20.4306C28.7333 20.9606 28.4823 21.2116 27.9803 21.2116H26.8089V23.3033C26.8089 23.5543 26.8089 23.9169 26.9344 24.154C27.032 24.3492 27.2133 24.4329 27.4504 24.4329C27.6038 24.4329 27.7572 24.391 27.8827 24.3631C27.9943 24.3352 28.0919 24.3073 28.2034 24.3073Z" fill="white"/>
<path d="M6.67964 13.7129C8.55967 10.1981 10.7258 8.25675 14.0563 6.51996" stroke="#592EC1" stroke-width="1.5" stroke-linecap="round"/>
<defs>
<linearGradient id="paint0_linear_1328_185903" x1="16.9093" y1="2.68816" x2="48.7214" y2="66.909" gradientUnits="userSpaceOnUse">
<stop stop-color="#582DC1"/>
<stop offset="1" stop-color="#FF6A95"/>
</linearGradient>
<linearGradient id="paint1_linear_1328_185903" x1="22.8895" y1="0.238034" x2="54.0292" y2="39.9355" gradientUnits="userSpaceOnUse">
<stop offset="0.338542" stop-color="#FA72A1" stop-opacity="0"/>
<stop offset="1" stop-color="#FA72A1"/>
</linearGradient>
<linearGradient id="paint2_linear_1328_185903" x1="42.701" y1="-1.04938" x2="34.8932" y2="42.4223" gradientUnits="userSpaceOnUse">
<stop stop-color="#592DC1" stop-opacity="0.45"/>
<stop offset="1" stop-color="#592DC1" stop-opacity="0"/>
</linearGradient>
</defs>
</svg>