<svg width="103" height="30" viewBox="0 0 103 30" fill="none" xmlns="http://www.w3.org/2000/svg">
<g>
<path fill-rule="evenodd" clip-rule="evenodd" d="M41 7V22.7267H48.5589C50.3428 22.7267 51.8673 22.4351 53.1369 21.8471C54.4021 21.2592 55.3714 20.3796 56.0495 19.2129C56.7275 18.0462 57.0643 16.5925 57.0643 14.8518C57.0643 13.111 56.723 11.6574 56.0495 10.4907C55.3759 9.32406 54.4067 8.44906 53.1369 7.87037C51.8718 7.29166 50.3428 7 48.5589 7H41ZM48.3996 19.3842H45.296V10.3194H48.3996C49.0595 10.3194 49.6556 10.4074 50.1789 10.5926C50.7023 10.7777 51.1483 11.0509 51.5169 11.4074C51.8855 11.7685 52.1631 12.2037 52.3497 12.7129C52.5363 13.2222 52.6318 13.8148 52.6318 14.4861V15.2407C52.6318 15.8981 52.5363 16.486 52.3497 17.0046C52.1631 17.5231 51.8855 17.9583 51.5169 18.3101C51.1483 18.662 50.7023 18.9259 50.1789 19.111C49.651 19.2916 49.0595 19.3842 48.3996 19.3842Z" fill="white"/>
<path fill-rule="evenodd" clip-rule="evenodd" d="M61.8697 22.3241C62.9436 22.7731 64.2224 23 65.7059 23L65.7105 22.9954C66.7299 22.9954 67.6537 22.8889 68.4774 22.6852C69.3011 22.4769 70.011 22.1806 70.6026 21.7917C71.1942 21.4028 71.6493 20.926 71.9633 20.3611C72.2773 19.7963 72.4366 19.1575 72.4366 18.4399H68.5229C68.5093 18.7454 68.4274 19.0139 68.2863 19.2408C68.1452 19.4723 67.945 19.6713 67.6901 19.838C67.4353 20.0047 67.1394 20.1343 66.8118 20.2269C66.4842 20.3194 66.1246 20.3657 65.7333 20.3657C65.0416 20.3657 64.4636 20.2593 63.9994 20.0463C63.5353 19.8333 63.1848 19.5093 62.9527 19.0833C62.7161 18.6575 62.5887 18.1204 62.5568 17.4815H72.4821V16.588C72.4821 15.1667 72.2136 14.0001 71.6721 13.0834C71.1351 12.1667 70.3432 11.4908 69.3102 11.0464C68.2726 10.6066 66.9939 10.3844 65.5512 10.3844C64.1086 10.3844 62.8663 10.6112 61.8151 11.0695C60.7638 11.5279 59.9538 12.2223 59.3849 13.1529C58.816 14.088 58.5293 15.2315 58.5293 16.6806C58.5293 18.1297 58.816 19.3195 59.394 20.25C59.972 21.1852 60.7957 21.875 61.8697 22.3241ZM68.3636 15.3287H62.5841C62.6569 14.8426 62.8208 14.426 63.0665 14.0834C63.3123 13.7362 63.6535 13.4769 64.0904 13.2917C64.5228 13.1112 65.0598 13.0186 65.6877 13.0186C66.0746 13.0186 66.4341 13.0695 66.7663 13.1668C67.0985 13.264 67.3806 13.4121 67.6218 13.6112C67.863 13.8102 68.0451 14.051 68.1725 14.3334C68.2999 14.6158 68.3636 14.9491 68.3636 15.3287Z" fill="white"/>
<path d="M74.4309 22.7269V10.6622H77.6256L77.8941 12.5187H78.0761C78.4356 12.0325 78.8543 11.6298 79.323 11.315C79.7963 11.0001 80.3106 10.7687 80.8657 10.6159C81.4209 10.4631 81.9898 10.389 82.5768 10.389C83.5826 10.389 84.4245 10.5603 85.1071 10.9029C85.7897 11.2455 86.3085 11.764 86.6589 12.4585C87.0093 13.1529 87.1868 14.0325 87.1868 15.1019V22.7269H83.2504V15.6529C83.2504 15.2871 83.2003 14.9631 83.1047 14.6807C83.0092 14.3983 82.8681 14.1668 82.6906 13.9816C82.5086 13.7964 82.281 13.6622 82.0035 13.5696C81.7259 13.477 81.4164 13.4307 81.0705 13.4307C80.5608 13.4307 80.1012 13.5464 79.6871 13.7733C79.273 14.0001 78.9498 14.3103 78.7086 14.6992C78.4675 15.0881 78.3492 15.5325 78.3492 16.0371V22.7223H74.4355L74.4309 22.7269Z" fill="white"/>
<path fill-rule="evenodd" clip-rule="evenodd" d="M92.1643 22.3009C93.2201 22.7685 94.4762 23 95.9324 23C97.3841 23 98.6446 22.7685 99.7006 22.3009C100.761 21.838 101.576 21.1389 102.144 20.2084C102.713 19.2732 103 18.1019 103 16.6806C103 15.2593 102.713 14.0834 102.144 13.1529C101.571 12.2223 100.756 11.5279 99.7006 11.0695C98.6446 10.6112 97.3886 10.3844 95.9324 10.3844C94.4762 10.3844 93.2201 10.6112 92.1643 11.0695C91.104 11.5279 90.2894 12.2223 89.7206 13.1529C89.1517 14.088 88.865 15.2593 88.865 16.6806C88.865 18.1019 89.1517 19.2778 89.7206 20.2084C90.294 21.1389 91.1086 21.8333 92.1643 22.3009ZM97.6526 19.8195C97.1977 20.0787 96.6241 20.2084 95.9324 20.2084C95.2271 20.2084 94.6491 20.0787 94.1985 19.8195C93.748 19.5602 93.4158 19.1945 93.1974 18.7223C92.9789 18.25 92.8697 17.6852 92.8697 17.0278V16.3658C92.8697 15.713 92.9789 15.1436 93.1974 14.6621C93.4158 14.1806 93.748 13.8149 94.1985 13.5649C94.6491 13.3102 95.2453 13.1853 95.9324 13.1853C96.6196 13.1853 97.1932 13.3149 97.6526 13.5649C98.1121 13.8149 98.4491 14.1806 98.6676 14.6621C98.8861 15.139 98.9951 15.7084 98.9951 16.3658V17.0278C98.9951 17.6852 98.8861 18.25 98.6676 18.7223C98.4491 19.1945 98.1121 19.5602 97.6526 19.8195Z" fill="white"/>
<path d="M15 0C23.2843 0 30 6.71572 30 15C30 23.2843 23.2843 30 15 30C6.71572 30 0 23.2843 0 15C0 6.71572 6.71572 0 15 0Z" fill="black"/>
<path d="M14.663 22.3396C14.2783 22.2359 13.8826 22.4586 13.77 22.8383L13.765 22.856L12.7689 26.5474L12.7644 26.5652C12.6706 26.95 12.9006 27.3416 13.2853 27.4453C13.6699 27.5492 14.0656 27.3265 14.1782 26.9467L14.1832 26.9291L15.1792 23.2377L15.1838 23.2198C15.1906 23.1921 15.1957 23.1642 15.1992 23.1364L15.2021 23.1086L15.1785 22.989L15.144 22.8168L15.1222 22.7093C15.0755 22.6192 15.0106 22.5398 14.9315 22.4761C14.8525 22.4125 14.761 22.366 14.663 22.3396ZM7.72191 18.5381C7.70375 18.5743 7.68834 18.6125 7.67609 18.6524L7.66918 18.6765L6.67309 22.3679L6.66851 22.3858C6.57476 22.7706 6.80475 23.1621 7.18941 23.2659C7.57402 23.3697 7.96977 23.1471 8.08238 22.7673L8.0873 22.7496L8.99047 19.4025C8.51744 19.152 8.09287 18.863 7.72191 18.5381ZM5.34658 14.2931C4.96191 14.1893 4.56617 14.4119 4.45361 14.7917L4.44863 14.8094L3.45254 18.5008L3.44797 18.5186C3.35422 18.9034 3.5842 19.2949 3.96887 19.3987C4.35348 19.5025 4.74922 19.2799 4.86183 18.9001L4.86676 18.8824L5.86285 15.191L5.86742 15.1732C5.96117 14.7884 5.73125 14.3969 5.34658 14.2931ZM27.6815 13.4548C27.2968 13.351 26.901 13.5736 26.7885 13.9534L26.7835 13.9711L25.7874 17.6625L25.7828 17.6803C25.6891 18.0651 25.9191 18.4566 26.3037 18.5604C26.6884 18.6642 27.0841 18.4416 27.1967 18.0618L27.2016 18.0441L28.1977 14.3527L28.2023 14.3349C28.296 13.9501 28.0661 13.5586 27.6815 13.4548ZM3.17732 8.52545C2.34312 10.0446 1.81194 11.7114 1.61328 13.4331C1.70831 13.5414 1.83332 13.6192 1.97252 13.6565C2.35719 13.7604 2.75293 13.5377 2.86549 13.1579L2.87047 13.1403L3.86656 9.44883L3.87113 9.43102C3.96488 9.04617 3.7349 8.65465 3.35023 8.55088C3.29381 8.53565 3.23574 8.52712 3.17732 8.52545ZM25.1585 8.55088C24.7739 8.44705 24.3781 8.66971 24.2655 9.04951L24.2606 9.06715L23.2645 12.7586L23.2599 12.7764C23.1662 13.1612 23.3961 13.5528 23.7808 13.6565C24.1654 13.7604 24.5612 13.5377 24.6738 13.1579L24.6787 13.1403L25.6748 9.44883L25.6794 9.43102C25.7731 9.04617 25.5431 8.65465 25.1585 8.55088Z" fill="white"/>
<path d="M7.51322 5.04089C7.12861 4.93706 6.73286 5.15972 6.62025 5.53953L6.61532 5.55716L5.61923 9.24857L5.61466 9.26638C5.52091 9.65122 5.75089 10.0427 6.13556 10.1465C6.52017 10.2503 6.91591 10.0276 7.02853 9.64788L7.03345 9.63025L8.02954 5.93884L8.03411 5.92103C8.12786 5.53619 7.89788 5.14466 7.51322 5.04089ZM20.312 5.73869C19.9273 5.63486 19.5316 5.85751 19.419 6.23732L19.414 6.25495L18.7447 8.73523C19.1783 8.94939 19.5921 9.2015 19.9813 9.48863L20.0457 9.53667L20.8283 6.63663L20.8328 6.61882C20.9266 6.23398 20.6967 5.84245 20.312 5.73869ZM13.7972 1.57666C13.33 1.61795 12.8651 1.68362 12.4047 1.77341L12.307 1.79287L11.3786 5.23443L11.374 5.25224C11.2803 5.63708 11.5103 6.02861 11.8949 6.13238C12.2796 6.2362 12.6753 6.01355 12.7879 5.63374L12.7928 5.61611L13.7889 1.9247L13.7935 1.90689C13.82 1.79855 13.8213 1.68557 13.7972 1.57666ZM22.963 4.12654L22.7673 4.85193L22.7627 4.86968C22.669 5.25453 22.899 5.64605 23.2836 5.74982C23.6682 5.85365 24.064 5.63099 24.1766 5.25119L24.1815 5.23355L24.2029 5.15486C23.8366 4.81229 23.4515 4.49033 23.0495 4.19046L22.963 4.12654ZM17.1676 1.69701L16.8143 3.00617L16.8098 3.02398C16.716 3.40882 16.946 3.80035 17.3307 3.90412C17.7153 4.00794 18.111 3.78529 18.2237 3.40548L18.2286 3.38785L18.6004 2.0099C18.1628 1.88891 17.7194 1.79025 17.2718 1.71429L17.1676 1.69701Z" fill="white"/>
<path d="M9.69109 24.6252C9.80365 24.2454 10.1994 24.0228 10.584 24.1265C10.9687 24.2302 11.1986 24.6218 11.1049 25.0067L11.1003 25.0245L10.3874 27.6663L10.2878 27.6296C9.8586 27.4693 9.43789 27.2872 9.02734 27.0838L9.68611 24.6428L9.69109 24.6252Z" fill="white"/>
<path d="M14.4151 8.49072C10.0532 8.49072 6.66016 11.2367 6.66016 14.6516C6.66016 17.8768 9.78221 19.9361 14.6221 19.833C15.0337 19.8242 15.1527 20.1007 15.2866 20.4733C15.4206 20.8459 15.7806 22.8096 16.0675 24.3116C16.3243 25.6559 16.5852 27.0051 16.7844 28.3595C19.9449 27.9417 22.8673 26.3806 25.0086 24.026L22.7247 15.5087C22.1554 13.4517 21.49 11.5563 19.7293 10.1793C18.3128 9.07156 16.5132 8.49072 14.4151 8.49072Z" fill="white"/>
<path d="M15.3516 10.957C15.8694 10.957 16.2891 11.3767 16.2891 11.8945C16.2891 12.4123 15.8694 12.832 15.3516 12.832C14.8338 12.832 14.4141 12.4123 14.4141 11.8945C14.4141 11.3767 14.8338 10.957 15.3516 10.957Z" fill="black"/>
</g>
</svg>
