<svg width="154" height="62" viewBox="0 0 154 62" fill="none" xmlns="http://www.w3.org/2000/svg">
<g id="netlify" clip-path="url(#clip0_4278_56219)">
<path id="Vector" d="M35.7466 61.4174V45.8634L36.072 45.5389H39.324L39.6494 45.8634V61.4174L39.324 61.7419H36.072L35.7466 61.4174ZM35.7466 15.8775V0.324355L36.072 0H39.324L39.6494 0.324355V15.8775L39.324 16.2018H36.072L35.7466 15.8775ZM21.6102 50.2046H21.1504L18.8512 47.9127V47.4543L24.2201 42.106L26.6547 42.1072L26.9813 42.4303V44.8563L21.6102 50.2046ZM21.6079 11.5373H21.1481L18.8489 13.8293V14.2875L24.2178 19.6359L26.6524 19.6348L26.979 19.3115V16.8857L21.6079 11.5373ZM1.10897 28.9265H23.223L23.5485 29.2509V32.491L23.223 32.8155H1.10897L0.783447 32.491V29.2509L1.10897 28.9265ZM132.078 28.9265H152.892L153.218 29.2509V32.491L152.892 32.8155H130.778L130.453 32.491L131.752 29.2509L132.078 28.9265Z" fill="#05BDBA"/>
<path id="Vector_2" d="M63.917 32.2548L63.5916 32.5794H53.5036L53.1782 32.9036C53.1782 33.5524 53.8293 35.4972 56.4323 35.4972C57.4088 35.4972 58.3841 35.173 58.7099 34.5242L59.0353 34.2H62.9405L63.2659 34.5242L63.2448 34.6421C62.8741 36.585 61.2164 39.3884 56.4323 39.3884C50.9006 39.3884 48.2965 35.4972 48.2965 30.9585C48.2965 26.4199 50.8994 22.5288 56.1066 22.5288C61.314 22.5288 63.917 26.4199 63.917 30.9585V32.2548ZM58.7099 29.3368L59.0353 29.0125L59.0333 28.9604C59.0032 28.4978 58.5983 26.4188 56.1066 26.4188C53.5036 26.4188 53.1782 28.6881 53.1782 29.0125L53.5036 29.3368H58.7099ZM73.0285 34.2C73.0285 34.8485 73.3539 35.173 74.005 35.173H76.9334L77.2591 35.4972V38.7396L76.9334 39.0642H74.005C71.0763 39.0642 68.4733 37.7666 68.4733 34.2V27.0664L68.1476 26.742H65.8703L65.5446 26.4177V23.1752L65.8703 22.8509H68.1476L68.4733 22.5265V19.6085L68.7987 19.2841H72.7039L73.0293 19.6085V22.5265L73.355 22.8509H76.9345L77.2603 23.1752V26.4177L76.9345 26.742H73.355L73.0293 27.0664V34.2H73.0285ZM85.0683 39.0642H81.1631L80.8374 38.7396V16.6915L81.1631 16.3672H85.0683L85.3937 16.6915V38.7396L85.0683 39.0642ZM93.854 20.2583H89.9488L89.6231 19.934V16.6915L89.9488 16.3672H93.854L94.1794 16.6915V19.934L93.854 20.2583ZM93.854 39.0642H89.9488L89.6231 38.7396V23.1764L89.9488 22.852H93.854L94.1794 23.1764V38.7396L93.854 39.0642ZM109.148 16.6915V19.934L108.822 20.2583H105.894C105.243 20.2583 104.917 20.5827 104.917 21.2314V22.5288L105.243 22.8532H108.497L108.822 23.1775V26.4199L108.497 26.7443H105.243L104.917 27.0686V38.7408L104.592 39.0651H100.686L100.361 38.7408V27.0686L100.035 26.7443H97.758L97.4323 26.4199V23.1775L97.758 22.8532H100.035L100.361 22.5288V21.2314C100.361 17.703 102.908 16.3954 105.798 16.3676L108.821 16.3672L109.147 16.6915H109.148ZM121.189 39.3872L121.064 39.6917C119.8 42.7517 118.441 44.5759 114.028 44.5759H112.401L112.075 44.2514V41.009L112.401 40.6848H114.028L114.218 40.6832C115.681 40.6578 115.993 40.3213 116.306 39.3872V39.063L111.1 26.4177V23.1752L111.426 22.8509H114.354L114.68 23.1752L118.585 34.2H118.91L122.815 23.1752L123.141 22.8509H126.07L126.395 23.1752V26.4177L121.189 39.3872ZM41.111 39.0642L40.7856 38.7396L40.7877 29.3448C40.7877 27.7241 40.1481 26.4675 38.1847 26.4267C37.1751 26.4006 36.0199 26.4244 34.7859 26.4766L34.6016 26.6649L34.604 38.7396L34.2783 39.0642H30.3744L30.0488 38.7396V23.0028L30.3744 22.6785L39.16 22.5991C43.5615 22.5991 45.3428 25.6124 45.3428 29.0136V38.7396L45.0174 39.0642H41.111Z" fill="white"/>
</g>
<defs>
<clipPath id="clip0_4278_56219">
<rect width="152.433" height="62" fill="white" transform="translate(0.783447)"/>
</clipPath>
</defs>
</svg>
