<svg width="28" height="28" viewBox="-2 -2 28 28" fill="none" xmlns="http://www.w3.org/2000/svg">
<path d="M19.0866 14.1876C19.1089 14.6599 19.314 17.7439 19.3079 18.2243C19.3018 18.7046 19.3079 19.1487 19.2957 19.6109C19.2774 20.2055 19.2245 20.7985 19.1373 21.387C19.1129 21.5384 19.0845 21.6877 19.0521 21.8371C18.9691 22.199 18.7515 22.5163 18.4429 22.7252C18.0912 22.9749 17.702 23.1677 17.2896 23.2964C13.688 24.3595 5.59643 23.9235 4.3126 23.8461C4.20783 23.8398 4.10549 23.8305 4.00136 23.8176C3.31094 23.7322 1.76031 23.5685 1.2571 23.3317C0.838292 23.1347 0.4635 22.8363 0.241295 22.4336C0.171572 22.3072 0.114358 22.1737 0.0709203 22.0349C0.00436445 21.7712 -0.0155337 21.498 0.0120176 21.2275C0.0697064 20.6713 0.188567 20.1232 0.366331 19.5932C0.409294 19.465 0.458908 19.3395 0.509841 19.2143C1.23356 17.435 6.9258 3.38953 9.40516 1.02088C9.46443 0.964225 9.75145 0.667236 9.99165 0.52908C10.4838 0.246032 10.9048 0.127978 11.4681 0.0452204H11.4884L11.5737 0.0290866C12.1921 -0.0480845 12.8201 0.0288777 13.4011 0.253133C14.2946 0.604319 15.722 1.13919 15.9738 1.2502C16.4324 1.44751 16.8263 1.76841 17.1109 2.17661C17.1412 2.21979 17.1712 2.26324 17.2008 2.30689C17.5652 2.84379 17.8089 3.449 17.9395 4.08271C18.2051 5.37154 18.6334 8.19168 19.0866 14.1877V14.1876Z" fill="url(#paint0_linear_1_152)"/>
<defs>
<linearGradient id="paint0_linear_1_152" x1="-1.63103e-05" y1="12.0001" x2="19.308" y2="12.0001" gradientUnits="userSpaceOnUse">
<stop stop-color="#FCB60A"/>
<stop offset="0.115" stop-color="#F69319"/>
<stop offset="0.305" stop-color="#EF6D2A"/>
<stop offset="0.727" stop-color="#ED5332"/>
<stop offset="1" stop-color="#ED6A32"/>
</linearGradient>
</defs>
</svg>
