<?xml version="1.0" encoding="UTF-8"?> <svg xmlns="http://www.w3.org/2000/svg" xmlns:xlink="http://www.w3.org/1999/xlink" id="Layer_2" viewBox="0 0 909.17 360.3"><defs><style>.cls-1{fill:url(#linear-gradient);}.cls-2{fill:#fff;}.cls-3{fill:#8b39ff;}.cls-4{fill:url(#linear-gradient-3);}.cls-5{fill:url(#linear-gradient-2);}</style><linearGradient id="linear-gradient" x1="53.66" y1="316.71" x2="208.78" y2="48.02" gradientUnits="userSpaceOnUse"><stop offset="0" stop-color="#b26bfc"></stop><stop offset=".48" stop-color="#8755fb"></stop><stop offset="1" stop-color="#662ffb"></stop></linearGradient><linearGradient id="linear-gradient-2" x1="206.83" y1="205" x2="206.83" y2="36.3" gradientUnits="userSpaceOnUse"><stop offset=".21" stop-color="#000233" stop-opacity="0"></stop><stop offset=".48" stop-color="#000233" stop-opacity=".5"></stop><stop offset=".61" stop-color="#000233" stop-opacity=".42"></stop><stop offset=".74" stop-color="#000233" stop-opacity=".18"></stop><stop offset=".8" stop-color="#000233" stop-opacity="0"></stop></linearGradient><linearGradient id="linear-gradient-3" x1="78.84" y1="190.44" x2="320.01" y2="190.44" gradientUnits="userSpaceOnUse"><stop offset="0" stop-color="#b26bfc" stop-opacity="0"></stop><stop offset=".08" stop-color="#a966fb" stop-opacity=".19"></stop><stop offset=".23" stop-color="#9b5ffb" stop-opacity=".53"></stop><stop offset=".35" stop-color="#9059fb" stop-opacity=".79"></stop><stop offset=".43" stop-color="#8956fb" stop-opacity=".94"></stop><stop offset=".48" stop-color="#8755fb"></stop><stop offset=".67" stop-color="#8654fb" stop-opacity=".99"></stop><stop offset=".74" stop-color="#8553fb" stop-opacity=".97"></stop><stop offset=".79" stop-color="#8451fb" stop-opacity=".92"></stop><stop offset=".83" stop-color="#824ffb" stop-opacity=".85"></stop><stop offset=".87" stop-color="#7f4cfb" stop-opacity=".76"></stop><stop offset=".9" stop-color="#7b47fb" stop-opacity=".65"></stop><stop offset=".93" stop-color="#7742fb" stop-opacity=".53"></stop><stop offset=".95" stop-color="#723dfb" stop-opacity=".38"></stop><stop offset=".98" stop-color="#6c36fb" stop-opacity=".21"></stop><stop offset="1" stop-color="#662ffb" stop-opacity=".02"></stop><stop offset="1" stop-color="#662ffb" stop-opacity="0"></stop></linearGradient></defs><g id="Layer_1-2"><g><path class="cls-2" d="M479.77,85.44c0,24.64-19.25,44.25-43,44.25-10.79,0-19.97-3.24-26.98-8.63v48.39h-18.71V43.17h18.71v6.66c7.01-5.4,16.19-8.64,26.98-8.64,23.75,0,43,19.61,43,44.25Zm-18.71,0c0-15.11-11.33-28.06-26.98-28.06-9.35,0-17.99,3.6-24.28,12.59v30.94c6.3,8.99,14.93,12.59,24.28,12.59,15.65,0,26.98-12.95,26.98-28.06Z"></path><path class="cls-2" d="M576.74,43.17V127.72h-18.53v-8.28c-7.38,6.66-16.55,10.43-27.52,10.43-21.95,0-36.7-15.65-36.7-39.93V43.17h18.53v45.69c0,15.47,8.45,24.11,21.95,24.11,8.27,0,16.91-4.68,23.74-13.31V43.17h18.53Z"></path><path class="cls-2" d="M648.16,41.37v17.63c-13.49,.54-23.74,5.58-31.3,15.47v53.25h-18.71V43.17h18.71v11.51c7.74-8.45,18.35-13.31,31.3-13.31Z"></path><path class="cls-2" d="M750.34,85.44c0,24.64-19.25,44.25-43,44.25-10.79,0-19.97-3.24-26.98-8.63v48.39h-18.71V43.17h18.71v6.66c7.01-5.4,16.19-8.64,26.98-8.64,23.75,0,43,19.61,43,44.25Zm-18.71,0c0-15.11-11.33-28.06-26.98-28.06-9.35,0-17.99,3.6-24.28,12.59v30.94c6.3,8.99,14.93,12.59,24.28,12.59,15.65,0,26.98-12.95,26.98-28.06Z"></path><path class="cls-2" d="M785.25,0V127.72h-18.71V0h18.71Z"></path><path class="cls-2" d="M887.24,91.02h-66.38c1.8,12.77,9.89,22.49,25.72,22.49,8.28,0,14.57-2.52,17.99-7.91h20.51c-5.4,15.29-20.33,24.28-38.67,24.28-26.62,0-44.61-19.25-44.61-44.43s17.81-44.43,43.53-44.43c28.06,0,45.51,21.41,41.91,50.01Zm-66.02-12.95h47.49c-1.08-13.85-10.07-21.23-23.2-21.23-14.03,0-22.13,9.35-24.28,21.23Z"></path><path class="cls-2" d="M479.77,259.9c0,24.64-19.25,44.25-43,44.25-10.79,0-19.97-3.24-26.98-8.63v48.39h-18.71v-126.28h18.71v6.66c7.01-5.4,16.19-8.64,26.98-8.64,23.75,0,43,19.61,43,44.25Zm-18.71,0c0-15.11-11.33-28.06-26.98-28.06-9.35,0-17.99,3.6-24.28,12.59v30.94c6.3,8.99,14.93,12.59,24.28,12.59,15.65,0,26.98-12.95,26.98-28.06Z"></path><path class="cls-2" d="M581.23,217.62v84.55h-18.53v-6.65c-7.2,5.58-16.37,8.81-27.16,8.81-23.74,0-42.81-19.79-42.81-44.43s19.07-44.43,42.81-44.43c10.79,0,19.97,3.24,27.16,8.82v-6.66h18.53Zm-18.53,57.56v-30.58c-6.3-8.99-15.11-12.23-24.46-12.23-15.47,0-26.81,12.41-26.81,27.52s11.33,27.52,26.81,27.52c9.35,0,18.17-3.24,24.46-12.23Z"></path><path class="cls-2" d="M662.91,300.91c-7.37,2.7-13.49,3.42-19.25,3.42-21.59,0-33.1-12.95-33.1-34.72v-36.34h-19.97v-15.65h19.97v-31.12h18.71v31.12h31.3v15.65h-31.3v36.34c0,12.23,6.12,17.45,16.55,17.45,5.04,0,10.08-1.44,14.39-3.24l2.7,17.09Z"></path><path class="cls-2" d="M735.23,271.41h19.07c-3.06,19.43-19.97,32.92-41.19,32.92-25.37,0-44.61-19.25-44.61-44.43s19.25-44.43,44.61-44.43c21.23,0,38.13,13.49,41.19,32.92h-19.07c-2.34-9.53-10.79-16.01-22.13-16.01-15.65,0-25.91,12.23-25.91,27.52s10.25,27.52,25.91,27.52c11.33,0,19.79-6.48,22.13-16.01Z"></path><path class="cls-2" d="M853.6,255.04v47.13h-18.71v-46.05c0-15.47-8.28-23.74-21.95-23.74-8.09,0-16.91,4.5-23.56,12.77v57.02h-18.71v-127.72h18.71v50.73c7.37-6.3,16.55-9.72,27.34-9.72,21.94,0,36.88,15.11,36.88,39.58Z"></path></g><g><path class="cls-1" d="M134.19,360.3c-4.89,0-9.69-1.92-13.3-5.53l-55.46-55.46c-4.32-4.32-6.7-10.07-6.7-16.19v-76.17c0-14.61,11.88-26.49,26.49-26.49h78.23c17.87,0,34.89-7.37,46.7-20.21,7.79-8.47,12.8-18.67,14.69-29.62H78.84c-9.46,0-18.35-3.68-25.04-10.37L6.26,72.72C.14,66.59-1.68,57.47,1.63,49.47s11.05-13.17,19.71-13.17H165.87c21.28,0,41.6,7.95,57.22,22.38,14.05,12.98,23.19,30.15,26.11,48.85,18.71,3.4,35.94,12.72,48.8,26.71,15.98,17.38,23.69,39.88,21.71,63.36-1.77,21-11.29,40.46-26.82,54.81-15.62,14.43-35.94,22.38-57.22,22.38h-80.65c-1.08,0-1.96,.88-1.96,1.96v64.7c0,7.65-4.56,14.48-11.63,17.41-2.34,.97-4.8,1.44-7.23,1.44Zm-50.94-77.85l45.26,45.26v-50.96c0-14.61,11.88-26.49,26.49-26.49h80.65c15.09,0,29.5-5.64,40.58-15.87,11.02-10.18,17.77-23.97,19.02-38.85,1.39-16.56-4.05-32.43-15.32-44.7-8.18-8.89-18.85-15.16-30.58-18.18-2.37,16.36-9.6,31.62-21.16,44.19-16.44,17.89-40.05,28.14-64.76,28.14H85.21c-1.08,0-1.96,.88-1.96,1.96v75.49ZM29.07,60.83l42.08,42.08c2.05,2.05,4.79,3.19,7.69,3.19H223.9c-2.8-11.21-8.82-21.41-17.46-29.39-11.08-10.23-25.49-15.87-40.58-15.87H29.07Z"></path><path class="cls-5" d="M163.44,205v-24.53c17.87,0,34.89-7.37,46.7-20.21,11.28-12.26,16.72-28.14,15.32-44.7-2.58-30.68-28.76-54.72-59.6-54.72v-24.53c43.49,0,80.4,33.91,84.05,77.19,1.98,23.48-5.73,45.98-21.71,63.36-16.44,17.89-40.05,28.14-64.76,28.14Z"></path><path class="cls-4" d="M235.66,274.79v-24.53c15.09,0,29.5-5.64,40.58-15.87,11.02-10.18,17.77-23.97,19.02-38.85,1.39-16.56-4.05-32.43-15.32-44.7-11.81-12.85-28.83-20.21-46.7-20.21H78.84v-24.53H233.23c24.71,0,48.32,10.26,64.76,28.14,15.98,17.38,23.69,39.88,21.71,63.36-1.77,21-11.29,40.46-26.82,54.81-15.62,14.43-35.94,22.38-57.22,22.38Z"></path></g><circle class="cls-3" cx="892.04" cy="285.26" r="17.13"></circle></g></svg> 