<svg width="286" height="60" viewBox="0 0 286 60" fill="none" xmlns="http://www.w3.org/2000/svg">
<path d="M62.3652 39.5985L69.17 35.7093C70.403 38.5293 72.5233 40.4252 76.4186 40.4252C80.1666 40.4252 81.1031 38.9669 81.1031 37.6539C81.1031 35.5635 79.1308 34.7374 73.9531 33.3271C68.8247 31.9168 63.7949 29.4866 63.7949 22.9714C63.7949 16.4082 69.4166 12.6157 75.3835 12.6157C81.0544 12.6157 85.4917 15.2897 88.0067 20.2974L81.3504 24.1379C80.1666 21.707 78.5396 20.2001 75.3835 20.2001C72.9179 20.2001 71.6848 21.4153 71.6848 22.7769C71.6848 24.3324 72.5233 25.4023 77.8984 27.0065C83.1254 28.562 88.9927 30.3613 88.9927 37.5567C88.9927 44.1198 83.668 48.009 76.1726 48.009C68.9233 48.009 64.2882 44.6055 62.3652 39.5985Z" fill="white"/>
<path d="M101.323 30.021V38.6267C101.323 40.7171 103.148 40.9111 106.403 40.7171V47.329C96.7384 48.3016 93.9274 45.433 93.9274 38.6267V30.021H89.9824V23.0202H93.9274V18.4016L101.324 16.2139V23.0202H106.403V30.021H101.323Z" fill="white"/>
<path d="M135.396 23.0203V47.3291H128V45.0441C126.373 46.8914 123.956 48.0093 120.652 48.0093C114.192 48.0093 108.866 42.4187 108.866 35.1741C108.866 27.9301 114.192 22.3389 120.652 22.3389C123.956 22.3389 126.372 23.4574 128 25.3047V23.0197H135.396V23.0203ZM128 35.1741C128 31.5281 125.535 29.2431 122.133 29.2431C118.73 29.2431 116.264 31.5281 116.264 35.1741C116.264 38.8207 118.73 41.1057 122.133 41.1057C125.534 41.1057 128 38.8207 128 35.1741Z" fill="white"/>
<path d="M139.589 35.1741C139.589 27.9301 145.161 22.3389 152.657 22.3389C157.44 22.3389 161.681 24.8184 163.802 28.5616L157.341 32.2569C156.503 30.5548 154.727 29.5342 152.558 29.5342C149.354 29.5342 146.987 31.8192 146.987 35.1734C146.987 38.5283 149.354 40.8133 152.558 40.8133C154.728 40.8133 156.552 39.792 157.341 38.0906L163.802 41.7372C161.681 45.5291 157.49 48.0086 152.657 48.0086C145.161 48.0093 139.589 42.4187 139.589 35.1741Z" fill="white"/>
<path d="M182.048 47.328L174.158 36.5833V47.328H166.761V13.2964H174.158V33.6667L181.556 23.0199H190.184L181.21 35.1743L190.431 47.3286H182.048V47.328Z" fill="white"/>
<path d="M219.033 37.3614C219.033 43.3902 214.052 47.328 207.888 47.328H193.391V13.2964H206.902C212.918 13.2964 217.8 17.1369 217.8 23.0199C217.8 25.8398 216.666 28.0762 214.792 29.6803C217.356 31.2845 219.033 33.9093 219.033 37.3614ZM201.281 20.589V26.6173H206.902C208.677 26.6173 209.91 25.3535 209.91 23.6034C209.91 21.8534 208.727 20.5896 206.902 20.5896H201.281V20.589ZM211.143 36.7784C211.143 34.8825 209.861 33.5215 207.888 33.5215H201.281V40.036H207.888C209.861 40.036 211.143 38.6744 211.143 36.7784Z" fill="white"/>
<path d="M222.732 11.8374H230.128V47.3279H222.732V11.8374Z" fill="white"/>
<path d="M234.813 16.5048C234.813 14.1226 236.835 12.1294 239.251 12.1294C241.668 12.1294 243.689 14.1226 243.689 16.5048C243.689 18.8871 241.668 20.8803 239.251 20.8803C236.836 20.8803 234.813 18.8871 234.813 16.5048ZM235.553 23.02H242.95V47.3288H235.553V23.02Z" fill="white"/>
<path d="M257.743 30.021V38.6267C257.743 40.7171 259.569 40.9111 262.824 40.7171V47.329C253.159 48.3016 250.348 45.433 250.348 38.6267V30.021H246.403V23.0202H250.348V18.4016L257.744 16.2139V23.0202H262.824V30.021H257.743Z" fill="white"/>
<path d="M286 40.5224V47.3288H266.276V42.4664L275.595 29.8263H266.768V23.02H285.506V27.8818L276.187 40.5224H286Z" fill="white"/>
<path d="M17.9574 35.8397C18.0052 35.7092 17.9086 35.5709 17.7696 35.5709H0.200397C0.0251127 35.5709 -0.0653753 35.3615 0.0547707 35.2338L32.5541 0.710205C32.7032 0.551805 32.9623 0.711725 32.8876 0.916021L24.3092 24.3593C24.2614 24.4898 24.358 24.628 24.497 24.628H42.0685C42.2438 24.628 42.3343 24.8375 42.2141 24.9651L9.71065 59.4838C9.56151 59.6422 9.30244 59.4822 9.37723 59.278L17.9574 35.8397Z" fill="white"/>
</svg>
