<svg width="162" height="35" viewBox="0 0 162 35" fill="none" xmlns="http://www.w3.org/2000/svg">
<g clip-path="url(#clip0_821_3)">
<path d="M10.344 20.653H0L18.909 0.166992L13.819 14.35H24.163L5.253 34.833L10.344 20.653Z" fill="#1389FD"/>
<path d="M34 23.0361L37.336 21.0861C38.043 22.9241 39.428 24.1111 41.89 24.1111C44.236 24.1111 45.056 23.1211 45.056 22.0181C45.056 20.5481 43.728 19.9831 40.785 19.1341C37.76 18.2571 34.82 16.9851 34.82 13.2241C34.82 9.49214 37.929 7.34214 41.323 7.34214C44.575 7.34214 47.063 9.01114 48.392 11.7811L45.112 13.6761C44.405 12.1771 43.331 11.1311 41.323 11.1311C39.682 11.1311 38.721 11.9801 38.721 13.1101C38.721 14.3261 39.484 14.9761 42.483 15.8811C45.622 16.8711 48.958 17.9171 48.958 21.9601C48.958 25.6641 45.989 27.9271 41.776 27.9271C37.732 27.9281 35.074 25.9771 34 23.0361ZM55.805 16.9011V22.7821C55.805 24.3081 56.908 24.3371 59 24.2231V27.5331C53.882 28.0981 52.155 26.5991 52.155 22.7821V16.9011H49.696V13.3931H52.155V10.5381L55.804 9.43514V13.3931H58.999V16.9011H55.805ZM75.543 13.3931V27.5331H71.896V25.8641C70.878 27.1361 69.351 27.9281 67.287 27.9281C63.526 27.9281 60.416 24.6761 60.416 20.4631C60.416 16.2501 63.526 12.9971 67.287 12.9971C69.351 12.9971 70.879 13.7891 71.896 15.0611V13.3921L75.543 13.3931ZM71.896 20.4631C71.896 18.0881 70.228 16.4761 67.966 16.4761C65.732 16.4761 64.063 18.0881 64.063 20.4631C64.063 22.8381 65.732 24.4491 67.966 24.4491C70.228 24.4501 71.896 22.8381 71.896 20.4631ZM78.121 20.4631C78.121 16.2501 81.287 12.9971 85.585 12.9971C88.356 12.9971 90.761 14.4681 91.919 16.6451L88.78 18.4831C88.215 17.3241 86.998 16.5881 85.556 16.5881C83.378 16.5881 81.767 18.1991 81.767 20.4621C81.767 22.6951 83.378 24.3071 85.556 24.3071C87.027 24.3071 88.242 23.6011 88.808 22.4411L91.975 24.2511C90.76 26.4571 88.355 27.9281 85.584 27.9281C81.287 27.9281 78.121 24.6761 78.121 20.4631ZM102.695 27.5331L97.549 21.1141V27.5331H93.902V7.73914H97.549V19.6151L102.413 13.3931H106.767L101.083 20.3781L106.937 27.5321H102.695V27.5331ZM123.481 21.7921C123.481 25.1851 120.738 27.5321 117.317 27.5321H108.919V7.73914H116.724C120.06 7.73914 122.746 10.0011 122.746 13.3091C122.746 15.0051 122.039 16.3351 120.88 17.2681C122.464 18.1731 123.481 19.7281 123.481 21.7921ZM112.82 11.3861V15.7411H116.723C117.939 15.7411 118.844 14.8061 118.844 13.5621C118.844 12.3181 117.967 11.3851 116.723 11.3851L112.82 11.3861ZM119.607 21.5381C119.607 20.2091 118.646 19.2201 117.317 19.2201H112.82V23.8851H117.317C118.647 23.8841 119.607 22.8951 119.607 21.5381ZM125.86 6.89014H129.507V27.5331H125.86V6.89014ZM132.422 9.46314C132.422 8.24714 133.44 7.20114 134.655 7.20114C135.899 7.20114 136.917 8.24714 136.917 9.46314C136.917 10.6791 135.899 11.6961 134.655 11.6961C133.44 11.6971 132.422 10.6791 132.422 9.46314ZM132.846 13.3931H136.493V27.5331H132.846V13.3931ZM144.724 16.9011V22.7821C144.724 24.3081 145.827 24.3371 147.919 24.2231V27.5331C142.801 28.0981 141.076 26.5991 141.076 22.7821V16.9011H138.616V13.3931H141.076V10.5381L144.723 9.43514V13.3931H147.918V16.9011H144.724ZM161.127 24.1111V27.5331H149.958V25.1001L155.924 16.8161H150.241V13.3931H160.844V15.8261L154.85 24.1111H161.127Z" fill="white"/>
</g>
<defs>
<clipPath id="clip0_821_3">
<rect width="162" height="35" fill="white"/>
</clipPath>
</defs>
</svg>
