<svg width="314" height="84" viewBox="50 30 314 84" fill="none" xmlns="http://www.w3.org/2000/svg">
<path d="M240.2 85V63.84H231.6V58.28H255.08V63.84H246.48V85H240.2ZM255.422 85V65.16H260.222L261.302 68.8C261.915 67.2 262.755 66.08 263.822 65.44C264.889 64.8 266.182 64.52 267.702 64.6V70.68C267.382 70.6267 267.102 70.6 266.862 70.6C266.622 70.5733 266.355 70.56 266.062 70.56C264.595 70.56 263.462 70.9067 262.662 71.6C261.889 72.2933 261.502 73.4267 261.502 75V85H255.422ZM280.145 85.48C278.011 85.48 276.118 85.0667 274.465 84.24C272.838 83.3867 271.558 82.1733 270.625 80.6C269.718 79.0267 269.265 77.1467 269.265 74.96C269.265 72.8533 269.745 71.0267 270.705 69.48C271.691 67.9333 272.985 66.7333 274.585 65.88C276.211 65.0267 277.985 64.6 279.905 64.6C282.091 64.6 283.958 65.12 285.505 66.16C287.078 67.1733 288.265 68.5867 289.065 70.4C289.865 72.1867 290.198 74.2533 290.065 76.6H275.385C275.491 77.9867 275.998 79.0267 276.905 79.72C277.838 80.4133 278.865 80.76 279.985 80.76C280.918 80.76 281.718 80.6267 282.385 80.36C283.078 80.0667 283.611 79.7067 283.985 79.28L288.825 81.04C287.785 82.56 286.478 83.68 284.905 84.4C283.358 85.12 281.771 85.48 280.145 85.48ZM275.385 73H284.425C284.398 71.72 283.958 70.76 283.105 70.12C282.251 69.4533 281.238 69.12 280.065 69.12C278.918 69.12 277.891 69.4267 276.985 70.04C276.105 70.6533 275.571 71.64 275.385 73ZM301.521 85.48C299.201 85.48 297.188 85.0533 295.481 84.2C293.801 83.3467 292.574 82.0933 291.801 80.44L296.961 78.56C297.254 79.3867 297.814 80.0133 298.641 80.44C299.494 80.84 300.494 81.04 301.641 81.04C302.628 81.04 303.494 80.8933 304.241 80.6C305.014 80.28 305.401 79.8133 305.401 79.2C305.401 78.7733 305.174 78.4133 304.721 78.12C304.268 77.8267 303.468 77.5867 302.321 77.4L298.761 76.8C296.841 76.48 295.281 75.8267 294.081 74.84C292.881 73.8533 292.281 72.5333 292.281 70.88C292.281 69.4933 292.694 68.3333 293.521 67.4C294.374 66.4667 295.494 65.7733 296.881 65.32C298.268 64.84 299.774 64.6 301.401 64.6C303.294 64.6 305.041 64.9467 306.641 65.64C308.268 66.3067 309.454 67.4267 310.201 69L305.081 70.88C304.894 70.16 304.454 69.68 303.761 69.44C303.068 69.1733 302.268 69.04 301.361 69.04C299.174 69.04 298.081 69.5733 298.081 70.64C298.081 71.04 298.268 71.3733 298.641 71.64C299.014 71.88 299.641 72.08 300.521 72.24L304.201 72.92C306.601 73.3467 308.374 73.9733 309.521 74.8C310.668 75.6267 311.241 76.8667 311.241 78.52C311.241 80.0667 310.801 81.36 309.921 82.4C309.041 83.44 307.868 84.2133 306.401 84.72C304.934 85.2267 303.308 85.48 301.521 85.48ZM323.388 85.48C320.588 85.48 318.361 84.8 316.708 83.44C315.054 82.08 313.948 80.2667 313.388 78L319.188 75.88C319.348 76.6267 319.588 77.36 319.908 78.08C320.254 78.7733 320.708 79.3467 321.268 79.8C321.854 80.2533 322.561 80.48 323.388 80.48C324.721 80.48 325.734 80.0667 326.428 79.24C327.148 78.3867 327.508 76.8933 327.508 74.76V58.28H333.828V74.76C333.828 78.0933 332.934 80.72 331.148 82.64C329.388 84.5333 326.801 85.48 323.388 85.48ZM348.13 85.48C345.224 85.48 342.77 84.8933 340.77 83.72C338.797 82.52 337.397 80.8533 336.57 78.72L342.33 76.64C342.704 77.92 343.397 78.8667 344.41 79.48C345.45 80.0933 346.704 80.4 348.17 80.4C348.944 80.4 349.69 80.32 350.41 80.16C351.13 79.9733 351.73 79.68 352.21 79.28C352.69 78.8533 352.93 78.2933 352.93 77.6C352.93 76.6667 352.477 75.9467 351.57 75.44C350.664 74.9067 349.49 74.5067 348.05 74.24L344.81 73.6C343.37 73.3067 342.024 72.8667 340.77 72.28C339.544 71.6667 338.557 70.8667 337.81 69.88C337.064 68.8667 336.69 67.6 336.69 66.08C336.69 64.64 337.024 63.4 337.69 62.36C338.357 61.32 339.237 60.4667 340.33 59.8C341.45 59.1333 342.677 58.64 344.01 58.32C345.344 57.9733 346.677 57.8 348.01 57.8C349.45 57.8 350.837 58 352.17 58.4C353.53 58.8 354.744 59.4267 355.81 60.28C356.877 61.1067 357.69 62.2133 358.25 63.6L352.53 65.68C352.184 64.7733 351.557 64.08 350.65 63.6C349.77 63.12 348.704 62.88 347.45 62.88C346.224 62.88 345.197 63.1067 344.37 63.56C343.57 63.9867 343.17 64.6133 343.17 65.44C343.17 66.1067 343.45 66.68 344.01 67.16C344.57 67.64 345.304 67.9733 346.21 68.16L349.81 68.88C350.904 69.0933 352.01 69.3733 353.13 69.72C354.25 70.04 355.277 70.48 356.21 71.04C357.17 71.5733 357.944 72.2933 358.53 73.2C359.117 74.1067 359.41 75.2533 359.41 76.64C359.41 78.0533 359.077 79.32 358.41 80.44C357.77 81.5333 356.904 82.4533 355.81 83.2C354.744 83.9467 353.544 84.52 352.21 84.92C350.877 85.2933 349.517 85.48 348.13 85.48Z" fill="#F8F8F8"/>
<path d="M68.5069 63.1561C70.0844 60.7305 73.6359 60.7305 75.2134 63.1561L86.7005 80.8192C88.431 83.4802 86.5214 87 83.3472 87H60.373C57.1988 87 55.2892 83.4802 57.0197 80.8192L68.5069 63.1561Z" fill="#82DBC5"/>
<rect x="113.509" y="58" width="29.3509" height="29" rx="4" fill="#F8F8F8"/>
<ellipse cx="180.325" cy="72.5" rx="14.6754" ry="14.5" fill="#FBB03B"/>
</svg>