<svg width="192" height="192" viewBox="0 0 192 192" fill="none" xmlns="http://www.w3.org/2000/svg">
<path d="M72.914 18.8583C73.6908 17.5636 75.5671 17.5636 76.3439 18.8583L119.44 90.6854C120.24 92.0185 119.28 93.7144 117.725 93.7144H31.5327C29.9781 93.7144 29.0179 92.0185 29.8177 90.6854L72.914 18.8583Z" fill="#82DBC5"/>
<path d="M96 63C96 61.8954 96.8954 61 98 61H163.943C165.048 61 165.943 61.8954 165.943 63V128.943C165.943 130.048 165.048 130.943 163.943 130.943H98C96.8954 130.943 96 130.048 96 128.943V63Z" fill="#F8F8F8"/>
<circle cx="96.0002" cy="139.637" r="37.091" fill="#EFAC35"/>
</svg>