<svg width="103" height="103" viewBox="210 -10 120 120" fill="none" xmlns="http://www.w3.org/2000/svg">
    <path d="M244.344 0C240.883 4.1227 237.941 8.31299 235.518 12.5709C233.096 16.7612 231.123 21.019 229.6 25.3445C228.077 29.67 226.97 34.0292 226.278 38.4223C225.585 42.8153 225.205 47.2083 225.135 51.6014C225.274 60.5227 226.797 69.2749 229.704 77.8583C232.611 86.374 237.457 94.7546 244.24 103H230.95C227.973 99.3504 225.378 95.4305 223.163 91.2402C220.948 87.1175 219.113 82.8596 217.66 78.4666C216.206 74.0059 215.099 69.5115 214.337 64.9833C213.645 60.4551 213.299 55.9944 213.299 51.6014C213.299 47.2083 213.645 42.7477 214.337 38.2195C215.099 33.6237 216.206 29.0955 217.66 24.6348C219.183 20.1742 221.052 15.8825 223.267 11.7598C225.482 7.56955 228.077 3.6496 231.054 0H244.344Z" fill="white"/>
    <path d="M294.955 103C301.808 94.7546 306.688 86.3402 309.595 77.7569C312.502 69.106 314.025 60.3537 314.163 51.5C314.025 42.5787 312.502 33.8264 309.595 25.2431C306.688 16.6598 301.842 8.24541 295.059 0H308.245C311.222 3.6496 313.817 7.56955 316.032 11.7598C318.247 15.8825 320.082 20.1742 321.535 24.6348C323.058 29.0279 324.166 33.5223 324.858 38.1181C325.619 42.6463 326 47.107 326 51.5C326 55.893 325.619 60.3875 324.858 64.9833C324.096 69.5115 322.954 74.0059 321.431 78.4666C319.978 82.8596 318.144 87.1175 315.929 91.2402C313.714 95.4305 311.118 99.3504 308.141 103H294.955Z" fill="white"/>
    <path d="M297.673 51.3885C297.673 56.8851 297.096 61.9066 295.943 66.4532C294.857 70.9319 293.126 74.7659 290.751 77.9553C288.444 81.1446 285.526 83.6215 281.997 85.3858C278.468 87.1501 274.294 88.0323 269.476 88.0323C264.658 88.0323 260.484 87.1841 256.955 85.4876C253.426 83.7233 250.508 81.2803 248.201 78.1588C245.894 75.0373 244.163 71.2712 243.009 66.8604C241.856 62.4495 241.279 57.5298 241.279 52.101C241.279 46.5366 241.822 41.4472 242.908 36.8328C243.993 32.2184 245.69 28.2487 247.997 24.9236C250.305 21.5985 253.223 19.0538 256.752 17.2895C260.348 15.4573 264.59 14.5412 269.476 14.5412C274.226 14.5412 278.366 15.4233 281.895 17.1877C285.424 18.952 288.342 21.4628 290.649 24.72C293.025 27.9772 294.789 31.8791 295.943 36.4256C297.096 40.9043 297.673 45.892 297.673 51.3885ZM252.985 51.3885C252.985 55.1208 253.257 58.5816 253.8 61.7709C254.343 64.9603 255.259 67.7425 256.548 70.1176C256.729 70.4408 256.917 70.7547 257.114 71.0593C258.321 72.9288 259.829 74.4471 261.638 75.6141C262.533 76.1628 263.52 76.5946 264.6 76.9098C266.057 77.3353 267.683 77.5481 269.476 77.5481C272.53 77.5481 275.109 76.9035 277.212 75.6141C279.316 74.257 281.013 72.4248 282.302 70.1176C283.592 67.7425 284.508 64.9603 285.051 61.7709C285.593 58.5816 285.865 55.1208 285.865 51.3885C285.865 47.7242 285.593 44.2973 285.051 41.1079C284.508 37.8507 283.592 35.0685 282.302 32.7613C282.102 32.3928 281.892 32.0366 281.673 31.6926C280.477 29.8195 278.99 28.3095 277.212 27.1629C276.301 26.5748 275.3 26.1142 274.21 25.7809C272.785 25.3451 271.207 25.1272 269.476 25.1272C266.354 25.1272 263.742 25.8057 261.638 27.1629C259.534 28.5201 257.838 30.3862 256.548 32.7613C255.259 35.0685 254.343 37.8507 253.8 41.1079C253.257 44.2973 252.985 47.7242 252.985 51.3885Z" fill="white"/>
    <path d="M274.726 23.4442H283.983L264.466 79.5556H255.21L274.726 23.4442Z" fill="white"/>
</svg>
