<svg width="601" height="101" viewBox="0 0 601 101" fill="none" xmlns="http://www.w3.org/2000/svg">
<g clip-path="url(#clip0_866_46)">
<path d="M56.2789 31.3381H22.0582C19.989 31.3381 18.3114 29.5508 18.3114 27.3461C18.3114 25.1415 19.989 23.3541 22.0582 23.3541H56.2789C58.3481 23.3541 60.0257 25.1415 60.0257 27.3461C60.0257 29.5508 58.3481 31.3381 56.2789 31.3381Z" fill="white"/>
<path d="M18.4613 51.8303C18.4613 54.035 20.1388 55.8223 22.2081 55.8223H93.6468C95.716 55.8223 97.3936 54.035 97.3936 51.8303C97.3936 49.6257 95.716 47.8383 93.6468 47.8383H22.2081C20.1388 47.8383 18.4613 49.6257 18.4613 51.8303Z" fill="white"/>
<path fill-rule="evenodd" clip-rule="evenodd" d="M8.22013 0.608887H107.635C111.774 0.608887 115.128 4.18358 115.128 8.59312V75.6585C115.128 80.0678 111.774 83.6425 107.635 83.6425H74.6386L63.6626 97.546C62.2388 99.3496 60.1398 100.391 57.9277 100.391C55.7156 100.391 53.6167 99.3493 52.1929 97.5458L41.2168 83.6422H8.22013C4.08169 83.6422 0.726562 80.0675 0.726562 75.6582V8.59286C0.726562 4.18358 4.08169 0.608887 8.22013 0.608887ZM71.1494 75.6582H107.635V8.59286H8.22013V75.6582H44.7058L57.9275 92.4065L71.1494 75.6582Z" fill="white"/>
<path d="M267.05 30.7614C262.825 30.7614 259.291 27.2267 259.291 23.0022C259.291 18.7777 262.825 15.243 267.05 15.243C271.274 15.243 274.809 18.7777 274.809 23.0022C274.809 27.2267 271.274 30.7614 267.05 30.7614Z" fill="white"/>
<path d="M260.584 77.6617V34.5548H273.516V77.6617H260.584Z" fill="white"/>
<path d="M188.982 77.6617L172.343 17.3121H186.826L197.258 59.5568L208.897 17.3121H220.105L231.744 59.5568L242.176 17.3121H256.66L240.02 77.6617H224.329L214.501 42.0554L204.673 77.6617H188.982Z" fill="white"/>
<path fill-rule="evenodd" clip-rule="evenodd" d="M327.207 17.3121H314.275V38.6069C311.43 35.3308 307.205 33.3478 301.429 33.3478C290.135 33.3478 280.824 43.2624 280.824 56.1083C280.824 68.9541 290.135 78.8687 301.429 78.8687C307.205 78.8687 311.43 76.8858 314.275 73.6097V77.6617H327.207V17.3121ZM314.275 56.1083C314.275 62.5743 309.964 66.6264 304.015 66.6264C298.066 66.6264 293.756 62.5743 293.756 56.1083C293.756 49.6422 298.066 45.5902 304.015 45.5902C309.964 45.5902 314.275 49.6422 314.275 56.1083Z" fill="white"/>
<path fill-rule="evenodd" clip-rule="evenodd" d="M368.335 34.5548H380.922V75.5064C380.922 89.9903 369.628 96.1115 358.161 96.1115C349.195 96.1115 341.695 92.7491 337.729 85.6796L348.764 79.2998C350.402 82.3173 352.902 84.7312 358.593 84.7312C364.628 84.7312 368.335 81.6275 368.335 75.5064V71.5405C365.49 75.0753 361.351 77.1444 355.748 77.1444C343.505 77.1444 334.539 67.1436 334.539 55.2461C334.539 43.3486 343.505 33.3478 355.748 33.3478C361.351 33.3478 365.49 35.417 368.335 38.9517V34.5548ZM357.903 65.2469C364.024 65.2469 368.335 61.1949 368.335 55.2461C368.335 49.2974 364.024 45.2453 357.903 45.2453C351.782 45.2453 347.471 49.2974 347.471 55.2461C347.471 61.1949 351.782 65.2469 357.903 65.2469Z" fill="white"/>
<path fill-rule="evenodd" clip-rule="evenodd" d="M412.308 67.3161C407.566 67.3161 403.6 65.7642 401.962 61.2811H432.568C432.913 59.643 433.085 57.9188 433.085 56.1083C433.085 43.09 423.774 33.3478 411.187 33.3478C397.565 33.3478 388.254 43.2624 388.254 56.1083C388.254 68.9541 397.393 78.8687 412.135 78.8687C420.326 78.8687 426.705 75.8512 430.93 69.9887L420.584 64.0399C418.86 65.9366 415.843 67.3161 412.308 67.3161ZM420.239 51.6252H401.704C402.911 47.2283 406.187 44.8143 411.101 44.8143C414.98 44.8143 418.86 46.6248 420.239 51.6252Z" fill="white"/>
<path d="M464.418 46.9696H455.538V62.2295C455.538 65.9366 458.728 66.2815 464.418 65.9366V77.6617C447.52 79.386 442.606 74.2994 442.606 62.2295V46.9696H435.709V34.5548H442.606V26.3645L455.538 22.4849V34.5548H464.418V46.9696Z" fill="white"/>
<path fill-rule="evenodd" clip-rule="evenodd" d="M518.123 56.1083C518.123 43.2624 508.812 33.3478 497.518 33.3478C491.742 33.3478 487.517 35.3308 484.672 38.6069V17.3121H471.74V77.6617H484.672V73.6097C487.517 76.8858 491.742 78.8687 497.518 78.8687C508.812 78.8687 518.123 68.9541 518.123 56.1083ZM505.191 56.1083C505.191 62.5743 500.88 66.6264 494.932 66.6264C488.983 66.6264 484.672 62.5743 484.672 56.1083C484.672 49.6422 488.983 45.5902 494.932 45.5902C500.88 45.5902 505.191 49.6422 505.191 56.1083Z" fill="white"/>
<path fill-rule="evenodd" clip-rule="evenodd" d="M546.147 78.8687C533.473 78.8687 523.3 68.9541 523.3 56.1083C523.3 43.2624 533.473 33.3478 546.147 33.3478C558.82 33.3478 568.993 43.2624 568.993 56.1083C568.993 68.9541 558.82 78.8687 546.147 78.8687ZM546.147 66.2815C551.75 66.2815 556.061 62.2295 556.061 56.1083C556.061 49.9871 551.75 45.935 546.147 45.935C540.543 45.935 536.232 49.9871 536.232 56.1083C536.232 62.2295 540.543 66.2815 546.147 66.2815Z" fill="white"/>
<path d="M591.847 46.9696H600.727V34.5548H591.847V22.4849L578.915 26.3645V34.5548H572.017V46.9696H578.915V62.2295C578.915 74.2994 583.829 79.386 600.727 77.6617V65.9366C595.036 66.2815 591.847 65.9366 591.847 62.2295V46.9696Z" fill="white"/>
</g>
<defs>
<clipPath id="clip0_866_46">
<rect width="600" height="99.7818" fill="white" transform="translate(0.726562 0.608887)"/>
</clipPath>
</defs>
</svg>
